<mxfile host="app.diagrams.net" modified="2023-09-06T20:16:58.715Z" agent="Mozilla/5.0 (Macintosh; Intel Mac OS X 10_15_7) AppleWebKit/537.36 (KHTML, like Gecko) Chrome/114.0.0.0 Safari/537.36" etag="3mQ9gyCl0PtPQcs1aAiA" version="21.7.0" type="github">
  <diagram name="Page-1" id="-S0vMJgSOeUa3yra3O5a">
    <mxGraphModel dx="3235" dy="2345" grid="1" gridSize="10" guides="1" tooltips="1" connect="1" arrows="1" fold="1" page="1" pageScale="1" pageWidth="850" pageHeight="1100" math="0" shadow="0">
      <root>
        <mxCell id="0" />
        <mxCell id="1" parent="0" />
        <mxCell id="ZN_Vx1n1vfZxGkJz-T1u-1" value="" style="rounded=0;whiteSpace=wrap;html=1;dashed=1;dashPattern=12 12;fillColor=#f5f5f5;strokeColor=#666666;fontColor=#333333;" parent="1" vertex="1">
          <mxGeometry x="-220" y="-140" width="1050" height="1040" as="geometry" />
        </mxCell>
        <mxCell id="ZN_Vx1n1vfZxGkJz-T1u-4" value="AWS Organization" style="text;html=1;align=center;verticalAlign=middle;resizable=0;points=[];autosize=1;strokeColor=none;fillColor=none;fontSize=12;" parent="1" vertex="1">
          <mxGeometry x="-216.89" y="-123.99999999999999" width="120" height="30" as="geometry" />
        </mxCell>
        <mxCell id="ZN_Vx1n1vfZxGkJz-T1u-5" value="" style="rounded=0;whiteSpace=wrap;html=1;dashed=1;dashPattern=12 12;fillColor=#d5e8d4;strokeColor=#82b366;" parent="1" vertex="1">
          <mxGeometry x="550" y="20" width="200" height="530" as="geometry" />
        </mxCell>
        <mxCell id="ZN_Vx1n1vfZxGkJz-T1u-8" value="Hub - VPC" style="text;html=1;align=center;verticalAlign=middle;resizable=0;points=[];autosize=1;strokeColor=none;fillColor=none;fontStyle=1" parent="1" vertex="1">
          <mxGeometry x="610" y="20" width="80" height="30" as="geometry" />
        </mxCell>
        <mxCell id="ZN_Vx1n1vfZxGkJz-T1u-12" value="AWS Firewall" style="text;html=1;align=center;verticalAlign=middle;resizable=0;points=[];autosize=1;strokeColor=none;fillColor=none;" parent="1" vertex="1">
          <mxGeometry x="600" y="162.66" width="100" height="30" as="geometry" />
        </mxCell>
        <mxCell id="ZN_Vx1n1vfZxGkJz-T1u-16" value="AWS WAF" style="text;html=1;align=center;verticalAlign=middle;resizable=0;points=[];autosize=1;strokeColor=none;fillColor=none;" parent="1" vertex="1">
          <mxGeometry x="610" y="275" width="80" height="30" as="geometry" />
        </mxCell>
        <mxCell id="ZHnCmB_-eCUDnraLg0bQ-4" style="edgeStyle=orthogonalEdgeStyle;rounded=0;orthogonalLoop=1;jettySize=auto;html=1;exitX=1;exitY=0.5;exitDx=0;exitDy=0;entryX=0;entryY=0.5;entryDx=0;entryDy=0;startArrow=classic;startFill=1;" parent="1" target="ZHnCmB_-eCUDnraLg0bQ-1" edge="1">
          <mxGeometry relative="1" as="geometry">
            <mxPoint x="674.6699999999996" y="360" as="sourcePoint" />
          </mxGeometry>
        </mxCell>
        <mxCell id="ZN_Vx1n1vfZxGkJz-T1u-30" value="AWS VPC Gateway" style="text;html=1;align=center;verticalAlign=middle;resizable=0;points=[];autosize=1;strokeColor=none;fillColor=none;" parent="1" vertex="1">
          <mxGeometry x="585" y="395" width="130" height="30" as="geometry" />
        </mxCell>
        <mxCell id="ZN_Vx1n1vfZxGkJz-T1u-33" value="" style="shape=image;verticalLabelPosition=bottom;labelBackgroundColor=default;verticalAlign=top;aspect=fixed;imageAspect=0;image=https://cdn-icons-png.flaticon.com/512/5325/5325192.png;" parent="1" vertex="1">
          <mxGeometry x="895" y="193.67" width="102.66" height="102.66" as="geometry" />
        </mxCell>
        <mxCell id="ZN_Vx1n1vfZxGkJz-T1u-36" value="NT Site&lt;br&gt;(Fortinet Gateway)" style="text;html=1;align=center;verticalAlign=middle;resizable=0;points=[];autosize=1;strokeColor=none;fillColor=none;" parent="1" vertex="1">
          <mxGeometry x="886.33" y="299.99999999999994" width="120" height="40" as="geometry" />
        </mxCell>
        <mxCell id="ZN_Vx1n1vfZxGkJz-T1u-60" value="" style="rounded=0;whiteSpace=wrap;html=1;fillColor=#d5e8d4;strokeColor=#82b366;" parent="1" vertex="1">
          <mxGeometry x="-180" y="-30" width="680" height="900" as="geometry" />
        </mxCell>
        <mxCell id="ZN_Vx1n1vfZxGkJz-T1u-67" value="" style="rounded=0;whiteSpace=wrap;html=1;dashed=1;dashPattern=12 12;" parent="1" vertex="1">
          <mxGeometry x="-150" width="620" height="400" as="geometry" />
        </mxCell>
        <mxCell id="ZN_Vx1n1vfZxGkJz-T1u-72" value="" style="rounded=0;whiteSpace=wrap;html=1;dashed=1;dashPattern=12 12;" parent="1" vertex="1">
          <mxGeometry x="-120" y="31" width="390" height="139" as="geometry" />
        </mxCell>
        <mxCell id="ZN_Vx1n1vfZxGkJz-T1u-86" value="AWS IAM" style="text;html=1;align=center;verticalAlign=middle;resizable=0;points=[];autosize=1;strokeColor=none;fillColor=none;" parent="1" vertex="1">
          <mxGeometry x="74.78999999999999" y="-60" width="80" height="30" as="geometry" />
        </mxCell>
        <mxCell id="ZN_Vx1n1vfZxGkJz-T1u-106" value="" style="rounded=0;whiteSpace=wrap;html=1;dashed=1;dashPattern=12 12;fontSize=10;" parent="1" vertex="1">
          <mxGeometry x="-130" y="220" width="450" height="160" as="geometry" />
        </mxCell>
        <mxCell id="ZN_Vx1n1vfZxGkJz-T1u-87" value="AWS RDS for &lt;br&gt;PostgreSQL" style="text;html=1;align=center;verticalAlign=middle;resizable=0;points=[];autosize=1;strokeColor=none;fillColor=none;fontSize=10;" parent="1" vertex="1">
          <mxGeometry x="-91.85999999999996" y="335.75999999999993" width="80" height="40" as="geometry" />
        </mxCell>
        <mxCell id="ZN_Vx1n1vfZxGkJz-T1u-92" value="AWS S3" style="text;html=1;align=center;verticalAlign=middle;resizable=0;points=[];autosize=1;strokeColor=none;fillColor=none;fontSize=10;" parent="1" vertex="1">
          <mxGeometry x="25.650000000000055" y="335.75999999999993" width="60" height="30" as="geometry" />
        </mxCell>
        <mxCell id="ZN_Vx1n1vfZxGkJz-T1u-101" value="Private Link" style="text;html=1;align=center;verticalAlign=middle;resizable=0;points=[];autosize=1;strokeColor=none;fillColor=none;fontSize=10;" parent="1" vertex="1">
          <mxGeometry x="-93.91999999999996" y="260.69999999999993" width="80" height="30" as="geometry" />
        </mxCell>
        <mxCell id="ZN_Vx1n1vfZxGkJz-T1u-105" value="Private Link" style="text;html=1;align=center;verticalAlign=middle;resizable=0;points=[];autosize=1;strokeColor=none;fillColor=none;fontSize=10;" parent="1" vertex="1">
          <mxGeometry x="18.980000000000047" y="258.54999999999995" width="80" height="30" as="geometry" />
        </mxCell>
        <mxCell id="ZN_Vx1n1vfZxGkJz-T1u-109" value="&amp;nbsp;UAE Region" style="text;html=1;align=center;verticalAlign=middle;resizable=0;points=[];autosize=1;strokeColor=none;fillColor=none;fontStyle=1" parent="1" vertex="1">
          <mxGeometry x="-175" y="-30" width="100" height="30" as="geometry" />
        </mxCell>
        <mxCell id="ZN_Vx1n1vfZxGkJz-T1u-116" value="Spoke - PROD - VPC" style="text;html=1;align=center;verticalAlign=middle;resizable=0;points=[];autosize=1;strokeColor=none;fillColor=none;fontStyle=1" parent="1" vertex="1">
          <mxGeometry x="289.9" y="1" width="140" height="30" as="geometry" />
        </mxCell>
        <mxCell id="ZN_Vx1n1vfZxGkJz-T1u-124" value="VMS - App - Subnet" style="text;html=1;align=center;verticalAlign=middle;resizable=0;points=[];autosize=1;strokeColor=none;fillColor=none;fontStyle=1" parent="1" vertex="1">
          <mxGeometry x="11.650000000000006" y="31" width="130" height="30" as="geometry" />
        </mxCell>
        <mxCell id="ZN_Vx1n1vfZxGkJz-T1u-164" value="AWS Fargate&lt;br&gt;3 Container Groups" style="text;html=1;align=center;verticalAlign=middle;resizable=0;points=[];autosize=1;strokeColor=none;fillColor=none;fontSize=10;" parent="1" vertex="1">
          <mxGeometry x="-66.47999999999999" y="121.00999999999999" width="110" height="40" as="geometry" />
        </mxCell>
        <mxCell id="ZN_Vx1n1vfZxGkJz-T1u-174" style="edgeStyle=orthogonalEdgeStyle;rounded=0;orthogonalLoop=1;jettySize=auto;html=1;exitX=0;exitY=0.5;exitDx=0;exitDy=0;startArrow=classic;startFill=1;endArrow=classic;endFill=1;" parent="1" edge="1">
          <mxGeometry relative="1" as="geometry">
            <mxPoint x="550" y="122.96" as="sourcePoint" />
            <mxPoint x="470" y="123.05" as="targetPoint" />
            <Array as="points">
              <mxPoint x="490" y="122.96" />
              <mxPoint x="490" y="122.96" />
            </Array>
          </mxGeometry>
        </mxCell>
        <mxCell id="ZN_Vx1n1vfZxGkJz-T1u-176" value="VPC Peering" style="text;html=1;align=center;verticalAlign=middle;resizable=0;points=[];autosize=1;strokeColor=none;fillColor=none;" parent="1" vertex="1">
          <mxGeometry x="469" y="126.01" width="90" height="30" as="geometry" />
        </mxCell>
        <mxCell id="ZN_Vx1n1vfZxGkJz-T1u-301" style="edgeStyle=orthogonalEdgeStyle;rounded=0;orthogonalLoop=1;jettySize=auto;html=1;exitX=0.25;exitY=1;exitDx=0;exitDy=0;startArrow=classic;startFill=1;" parent="1" edge="1">
          <mxGeometry relative="1" as="geometry">
            <mxPoint x="63.47000000000001" y="170" as="sourcePoint" />
            <mxPoint x="63.75" y="220" as="targetPoint" />
          </mxGeometry>
        </mxCell>
        <mxCell id="ZN_Vx1n1vfZxGkJz-T1u-91" value="AWS Inspector" style="text;html=1;align=center;verticalAlign=middle;resizable=0;points=[];autosize=1;strokeColor=none;fillColor=none;fontSize=10;" parent="1" vertex="1">
          <mxGeometry x="-68.86000000000001" y="-59.680000000000064" width="90" height="30" as="geometry" />
        </mxCell>
        <mxCell id="K-oJcx9k2w-ElkMvaQZx-5" value="Backend/Utility Subnets" style="text;html=1;align=center;verticalAlign=middle;resizable=0;points=[];autosize=1;strokeColor=none;fillColor=none;fontStyle=1" parent="1" vertex="1">
          <mxGeometry x="157.89999999999998" y="220.00000000000006" width="160" height="30" as="geometry" />
        </mxCell>
        <mxCell id="K-oJcx9k2w-ElkMvaQZx-7" value="AWS Backups" style="text;html=1;align=center;verticalAlign=middle;resizable=0;points=[];autosize=1;strokeColor=none;fillColor=none;fontSize=10;" parent="1" vertex="1">
          <mxGeometry x="204.89999999999998" y="335.75999999999993" width="90" height="30" as="geometry" />
        </mxCell>
        <mxCell id="ZHnCmB_-eCUDnraLg0bQ-1" value="" style="shape=image;verticalLabelPosition=bottom;labelBackgroundColor=default;verticalAlign=top;aspect=fixed;imageAspect=0;image=data:image/png,iVBORw0KGgoAAAANSUhEUgAAAOEAAADhCAMAAAAJbSJIAAAAk1BMVEUqMoL///8SH3soMIG7vdKytM0QHXvFx9gnL4EgKn9zd6YZJH4bJX0kLYAAFXiRlLkAEHegosIIGHk5QIrz8/gvN4aqrMgDFnjS0+IADHbk5e64utHc3ehcYZqYm72LjrVGTI9NU5Nlap9WW5c9RIt1eajt7fQ2PYhtcaPMzd6Ag66DhrBBSI3W2OWOkbausMsAAnVriPlZAAANf0lEQVR4nN2dC3ejLBCGQVKj9RI193uTNGnTNl/3//+6D81NIyrgDN3ue87u2dOeDT4ZgWEYBkL/dREzzRwWp+78exTHK644Hs27k8XBTNPIhIfj93q/8afhOLEty/M83/f5355lJ+No6u72vflpgPsIeISHTm85TBLLdwNSIRa4vpXYw2Wvs0B7DhzC0+idRZYfsCq2AicLfCv0tvEJ5VngCWdP727iuVJweble4m9H8JTAhKfeV2Sp090pw+HHEfaRIAlPn0HiO7p0FzHXtvaQkGCEs1U/9LWNV5SbsDXY0ANE2N1NvbbWy4v50WYO82gQhIN4mFTOCNoK7KAH4RS0J1x8RKDmu4v50+f2L2tbwtM2dFHwznLDbdv5ox3hYjvF5MsYpy0Z2xDO3lHtd2MMt23eVX3CwacCn+uVpfC/o72+e65NGNu+ghn2cVl7hRfATVaGCY+vlvzjEWJ1BZ/RUfkIZvU1HR0twsHzVG1+sDptCQlxonetV1WHsOMrvKBghPxV9UUfA084eA+V3U8YQsLCrboZlQmPrsYMAUSYmlHUo0EJ15HO+gGMkLDoE5Xw8OJpPBUkISHe1wyPsGNrLiEgCfmiQ+lNVSFcR3qPBExISLTGIdxpPxE0IbGXCIQz0sLLhiYkLpPujLKEE7vNKheckDjWBJZwrjVJIBLyaUMyjiNHOGoHiEHIEUdwhKuw1bPgEPIhVWpFJUPYawuIREjCHgzhOmn7JFiEJJFw4ZoJP9sDohESuxmxkRDAgoiEJGl0b5oIe2OAx0AkJOOm4aaBcNR6kMmESEii7zaEHW1fuyhMQhbVLzVqCSctJ/qbMAn5pFEbMK4jnNlAgMiEjlu3R1VDOCBgW0q4hCTo6xHu4DYlkAmJu9Uh/IR7AHRCYlf7b5WEUMNoJnRCUj2gVhHOEqhRJhU+IbOrRpsqwi/QjXl8QuJu1Ag/9eKiVTJASKwKD1VMeITshMQMIYnEkRsh4UA/b0ssI4SO2FrCn26BZkLmXJQICe3rr4G+T/9ZlnAOs6AgrH8VExLefv8KhBiJtokFhAOw9DTZ4PtKdce1QsL3VPCzPVB7hCVyWVsDC6rbe4LvtEw4mQI1xzvGhxRhD25q+lNeSJUJ+3BJanJGHACOqcFLM+EKcgz3ZXriCtK7SJ6aCAeg/ihLmjMLIE2Y5jM2EX5ADTNnSRgR1IS8xf/qCWfA7hqzmowINjddW3zs+w+EUN7MTV7T1kIMa0JuxH0d4QTIm7mLhQ1GBHZOucLi9nCRcAmfL9pgRHATpomQ1YQT4F6Yqb4nQq9iUk0LRiwQLuEz7rkR6zYWYviXlBux4ErlCRfgvTAVi2oIbZQWC8NpnvAZJ2u7xogoJnyYE3OEBziXuyDmV/ZEqLXvY4vjXIs5wjWsO3NXpRFHOCbkLcZCQmDnIierghBjIM3Eclj3f85Ren2m/FdqwoSE2PewyZ1whzFVnMVcIeEQ57hUqmBXJsQaZzJZIiN+4700fNY/lAgR3Ke7hEZENGG+Y9wIXzHbExnxCdOExHl9JDyh+DM3CYyIakK+wjg9EKJNhhdZj4mEiEN3plt04UooVxxAX+wxXPKGa8L7W3Np+ASR21Urq5jYg21CQpJTgbCH/JKmuzRGTchf016BEHckzWTnI5kd9HfmNpqeCaFDbMIWhzlCA98oiWY5whHmdH9Vzogd9F7I5Y1yhOBBRJFye199PB/4rksa0blV9HEmk309P9DF74Wp/DvhxEyLzjX97MVAL+RKJjdC4K2DSl2MaMiEF++bGOuGXM6bSRNeOiIx1w3JZeltyoQXxy0lnOGuK3JyvnhzGxMDaaZsRkwJ53jxkkclHXo09n2eE5VSQp2VE9OLk3Ej6pmQ6RSgyiLDKaF6DIpZwUovmuvrbTIzZ/SmfgIyi0elhETxWZnlx9rhVb1hm3kD+jRUZWTDM+FBbWzj9ksdvoGHvGYuNuqlcfq5qh3TtFpOeFRxg5nlnB3anyDkjH2lA/P2JCP8lh9KnbP9fo6QL0v6Cna0njJC6aGU2cN7KOKnCDnjVyLLmK7zifS2oWOzfKjl5wg546tkfbh0S58TbmS+Ecd+K+ZT/SQh9/w2YxnGdLogUl6pYw8fz4b/LCFnfJFgZEFG2Lgl4yT98tn3wdRqlGx3CexG/SnvIx83YSPjNCVs8rud5FVYvOj7qUnznRxisDx2GyV6hGPjuxoeOOGidsJ3ki+d4kxnSdYre0jxUdFxV2/H8YIT1oUwguRFuWpRTpKjtCvMsZfUpJYxOXHC6sheMG7FZ4aQMy6jynbsLiescmmCcNOOzxQhpadlVYFD7tSQis1fzte+mK8pwpRRXITTG1UQBuEOolixOcK00KjIjl7MCcuhRM4nW96mXiYJU8ZyfzwTPvg0QbiE4TNNyBnfHxm9VZnQW8KVRTdNmBaNLb6RfkpY3Bz1xelLejJPSGlcxOn9azbsvhTnPl/wlv7mflheb5wJ/5WxtPtVXhdnI80/Mh92XsaClUw2W4h3uH+ZT9Ppi2M3mU/z9Pv90urYVOaX/vq1RV18MVtb1AWEf8H6sD5GnEx++xp//lYfA8/W+AfNOE1zaOUoeQbH2c0bYz7Cclfzxr2aLE6jG2v70xwgk91icJrDdtNyrO1JYp8mi7VRiUSMvzBe+kQk9i/SnXwimRrxl8W8v+X2EoPND+xb6OV9FAlHrmSw+bJvYXTvyftPKzspTzgi0jUYLntPVU6NQK33D4MlfdHJVLgTStsv1WX/0OQecDihXZ1ak1fCUaBUQ+OyB2xwHz9LjtAx4pkwdhVrhFz28ZVPAernYoTpekUn64t5aXxCtQZKdkAg/aOew6OZT5MO3lQrBZo5K1X7kVw+jbGcqPF5yamTxs50XplbTpSpvLaLCc3ksae65bUtQCrpNmt8jRoYOIuQKbzmJlKwKka1ylIvz0I+1XVVluidEaJUGigpuS+m8c8EpcrlCBvJ8y4UOAIs1VStXJ73xMRXmuTjIUaMmMvVpwZWQvdDncZ6Yu68hYmO+FBYEPeMbKbCmRn8c0+5gdSUEQvnnvDPrpVqQyrkfGqqcHYN3csQ1KNmyH2/eP4Q/aCzXQ7WIdaMyHQ96nwhRD7bdTkOVBRS6ZarkkmBELGwSSqBCbGN+HiWm35ivqZCEyKfkC+dx4ev1JaTXSrXiG/EUk0FzOPjFSWMUV2p22nOOyHiifwKE6IVwkolqG0yQ6tPU2lCxDJK5E+5Pg1ejSGr+iIYtKI4wf36wDsh1hn5cs3UnEDrweaUW6rli2LhtFaq22LAiPnpKUeIs9JnrAYQvD7rRRX12gYoY02tCZG+VhaJa+7RD4RD67W9MBXYfUQ5FeqI5wkxznQL65jlBViu/KZxvoBpYa6CrzyQHjyq1wChCO17voEC4QK8JzaaEMOI00Lp+aK/AW3Exl5IoWukk0cTPhBCV22rKAlZ1H/AHvHDNWwPPuM7qBFlTMiNCDucPmbJodZkry2SfBdokIiN62uyg671a8rrFo0I2ROb6uqD3lTgy5mQGxGubzTfjUBHgEuMt+FFvvAmHf/66ze4Jsur7fLq9AswnMEussW3IV1/DdfgbSO9jhDwnpmbjNxolUrqnhn6DB+xMUXoCS5Axrzv6S5DhLL3PdEO+BrDEOFU8s4uhDWGGcLH20lqCH/p3XlDQSNV9x92//X7D3/nHZYV171UxaNh62/+hfeQ0hnolqmBu2Qt1btkf9t9wMKJop6QrgFdcPw7nauXMdWEdAvnvWET+lr3clM6BBttsO9WF++iNxMewPJOcQkdv+4iyTpCvpACQsQlDMtLJllC+gQ0oGISsupr1SUIaQyzzMAkjES5OvKEtAeS5Y5IGDUFnZsI6RrCucEjDBvjeY2E9ANg5kcjHDddkSlDSD/aWxGLMGwGlCGk69Z9EYlQBlCKkK7ajqgohKxxkJEnpKOo3dSPQtg0TSgR0nk7RARCJ5SsvSJJSCdWGzccnjDwZYs9yRLS2bBFiBGc0O/L3NquRkjpUv+JoAntd8HntSeka20/HJaQTWU3JlUJaUeyBDMuoWsp1XdSIqSzV704KiShtZHughqElO5DnWnDEi3hujqETrQWfBQkIe14GmOq+94rSyezxSfKFciUCelgq2FG1y9LHdCZatRbUidMUwyMXb1TkKduQE1COthPDZ2ozyn4o9oDWxByJ+7VzAn3m5i9qY2ogRNSGieGrsHK+Dyr6lQKHiF/VavLaAPz+bbMUheckNJFZRltULnhh9ocD0dYXw4dRsyd7mfND4JGmDKi2tEft+RrT8jf1ecp0ik75k0/2vJBEPIxZ0WU7iiSU2CTlVx+ar0gCLk6u6kH6QQwP9rIBZoaBURI6WH1GkIlxLkJ6bV/PS8CI+Q6fbqJzhV3BQV+4n9AlGm+CpKQa7Iehp7+GW3Xi17XkHgUnJDrFO+sxFendL3E347AXs6b4Am5Bsfe0h5brhwmY4Fvhd42hit3nxcKYabF98fGSWzLdytnEha4vpXYw2Wvo7lwkBAeYabD8Xu93/jTcMxZLc/z+Nqe/+1ZdjKOpu5u35ufICa9GiETXnVYnLrz71Ecr7jieDTvThZt3GkFGSL8Qf0PLXrk4JllvlcAAAAASUVORK5CYII=;" parent="1" vertex="1">
          <mxGeometry x="860" y="250" width="35" height="35" as="geometry" />
        </mxCell>
        <mxCell id="ZHnCmB_-eCUDnraLg0bQ-8" value="" style="shape=image;verticalLabelPosition=bottom;labelBackgroundColor=default;verticalAlign=top;aspect=fixed;imageAspect=0;image=https://www.interibex.ch/wp-content/uploads/2021/11/Microsoft_Office_Conditional_access_interibex.png;clipPath=inset(0% 26.67% 0% 25.33%);" parent="1" vertex="1">
          <mxGeometry x="118.32" y="-130.5" width="23.24" height="25.5" as="geometry" />
        </mxCell>
        <mxCell id="ZHnCmB_-eCUDnraLg0bQ-9" value="RBAC and Conditional Access" style="text;html=1;align=center;verticalAlign=middle;resizable=0;points=[];autosize=1;strokeColor=none;fillColor=none;fontSize=10;" parent="1" vertex="1">
          <mxGeometry x="42.519999999999996" y="-74.65" width="160" height="30" as="geometry" />
        </mxCell>
        <mxCell id="ZHnCmB_-eCUDnraLg0bQ-16" value="2 AWS App Service&lt;br&gt;with Private Link" style="text;html=1;align=center;verticalAlign=middle;resizable=0;points=[];autosize=1;strokeColor=none;fillColor=none;fontSize=10;" parent="1" vertex="1">
          <mxGeometry x="99.46" y="121.00999999999999" width="110" height="40" as="geometry" />
        </mxCell>
        <mxCell id="ZHnCmB_-eCUDnraLg0bQ-24" value="S2S IPSEC" style="text;html=1;align=center;verticalAlign=middle;resizable=0;points=[];autosize=1;strokeColor=none;fillColor=none;fontSize=10;" parent="1" vertex="1">
          <mxGeometry x="760" y="244.5" width="80" height="30" as="geometry" />
        </mxCell>
        <mxCell id="ZHnCmB_-eCUDnraLg0bQ-57" style="edgeStyle=orthogonalEdgeStyle;rounded=0;orthogonalLoop=1;jettySize=auto;html=1;exitX=0;exitY=0.5;exitDx=0;exitDy=0;entryX=1;entryY=0.5;entryDx=0;entryDy=0;" parent="1" source="ZN_Vx1n1vfZxGkJz-T1u-5" target="ZN_Vx1n1vfZxGkJz-T1u-72" edge="1">
          <mxGeometry relative="1" as="geometry">
            <Array as="points">
              <mxPoint x="430" y="285" />
              <mxPoint x="430" y="101" />
            </Array>
          </mxGeometry>
        </mxCell>
        <mxCell id="KjTmBkhDE84WE-KOnru3-1" value="" style="shape=image;verticalLabelPosition=bottom;labelBackgroundColor=default;verticalAlign=top;aspect=fixed;imageAspect=0;image=https://upload.wikimedia.org/wikipedia/commons/thumb/5/5c/AWS_Simple_Icons_AWS_Cloud.svg/2560px-AWS_Simple_Icons_AWS_Cloud.svg.png;" vertex="1" parent="1">
          <mxGeometry x="-255" y="-172.63" width="85" height="52.63" as="geometry" />
        </mxCell>
        <mxCell id="KjTmBkhDE84WE-KOnru3-2" value="" style="shape=image;verticalLabelPosition=bottom;labelBackgroundColor=default;verticalAlign=top;aspect=fixed;imageAspect=0;image=https://static-00.iconduck.com/assets.00/aws-iam-identity-and-access-management-icon-268x512-rzh3e7b8.png;" vertex="1" parent="1">
          <mxGeometry x="104.14" y="-110.97" width="21.72" height="41.5" as="geometry" />
        </mxCell>
        <mxCell id="KjTmBkhDE84WE-KOnru3-7" value="" style="shape=image;verticalLabelPosition=bottom;labelBackgroundColor=default;verticalAlign=top;aspect=fixed;imageAspect=0;image=https://www.nclouds.com/wp-content/uploads/2023/05/fargate-2.png;clipPath=inset(16% 33.33% 39.5% 35.67%);" vertex="1" parent="1">
          <mxGeometry x="-46.14" y="61" width="44.57" height="42.65" as="geometry" />
        </mxCell>
        <mxCell id="KjTmBkhDE84WE-KOnru3-8" value="" style="shape=image;verticalLabelPosition=bottom;labelBackgroundColor=default;verticalAlign=top;aspect=fixed;imageAspect=0;image=https://www.nclouds.com/wp-content/uploads/2023/05/fargate-2.png;clipPath=inset(16% 33.33% 39.5% 35.67%);" vertex="1" parent="1">
          <mxGeometry x="-36.14" y="71" width="44.57" height="42.65" as="geometry" />
        </mxCell>
        <mxCell id="KjTmBkhDE84WE-KOnru3-9" value="" style="shape=image;verticalLabelPosition=bottom;labelBackgroundColor=default;verticalAlign=top;aspect=fixed;imageAspect=0;image=https://www.nclouds.com/wp-content/uploads/2023/05/fargate-2.png;clipPath=inset(16% 33.33% 39.5% 35.67%);" vertex="1" parent="1">
          <mxGeometry x="-26.14" y="81" width="44.57" height="42.65" as="geometry" />
        </mxCell>
        <mxCell id="KjTmBkhDE84WE-KOnru3-10" value="" style="shape=image;verticalLabelPosition=bottom;labelBackgroundColor=default;verticalAlign=top;aspect=fixed;imageAspect=0;image=https://upload.wikimedia.org/wikipedia/commons/thumb/b/b9/AWS_Simple_Icons_Compute_Amazon_EC2_Instances.svg/1024px-AWS_Simple_Icons_Compute_Amazon_EC2_Instances.svg.png;" vertex="1" parent="1">
          <mxGeometry x="110" y="67.7" width="48.3" height="48.3" as="geometry" />
        </mxCell>
        <mxCell id="KjTmBkhDE84WE-KOnru3-11" value="" style="shape=image;verticalLabelPosition=bottom;labelBackgroundColor=default;verticalAlign=top;aspect=fixed;imageAspect=0;image=https://cdn2.iconfinder.com/data/icons/amazon-aws-stencils/100/Non-Service_Specific_copy_Virtual_Private_CLoud_-512.png;" vertex="1" parent="1">
          <mxGeometry x="425" y="-30" width="64.89" height="64.89" as="geometry" />
        </mxCell>
        <mxCell id="KjTmBkhDE84WE-KOnru3-13" value="" style="shape=image;verticalLabelPosition=bottom;labelBackgroundColor=default;verticalAlign=top;aspect=fixed;imageAspect=0;image=https://cdn2.iconfinder.com/data/icons/amazon-aws-stencils/100/Non-Service_Specific_copy_Virtual_Private_CLoud_-512.png;" vertex="1" parent="1">
          <mxGeometry x="710" y="-14.89" width="64.89" height="64.89" as="geometry" />
        </mxCell>
        <mxCell id="KjTmBkhDE84WE-KOnru3-14" value="" style="shape=image;verticalLabelPosition=bottom;labelBackgroundColor=default;verticalAlign=top;aspect=fixed;imageAspect=0;image=data:image/png,iVBORw0KGgoAAAANSUhEUgAAANIAAADxCAMAAACJfxnoAAAAwFBMVEX///91nD5LYSy3yp1zmT1zmzpFXCKFknaJql26zKG8z6Kzx5dOZDBIXih2nEFxmTd+okxsgFF9jGyZtHVsli06VA1qlSdulzFDWx+Rr2nq7+Pg6Nbo7uH3+fXR3cGLq1+Qo3Xr7eg1UQA+VxeVoIfx9e3Z48zF1LB/k2Sgs4Wsv5KmvoaBpFCdt3t0hGDJz8Nld06rwYxrf09ccT+FmWu9xLWpsp/f4tvI1rafqZKxuafFy75XbTeWqnx4iWPW3M5zG/xYAAAH2klEQVR4nO3daXeiShAG4AADiktwwT3EGLfELYsTjVlu/v+/ut0sGhToakQb59T7cc4sPKe7q7qIk1xdYTAYDAbDSu9G9BMknN6gb87/JdS6UmvKf4x6qyP6SRLKunKvybL8R5KMenck+mkSyM+iRkE2SZLU+uxW9BMdmc/nWlGWdySCMkvvop/qiLwtt6AtiaKksSX60eLlo9DfgX6RSExVv0DUSvOB/CRJapj5y0JZm35f3oufRFD1l7bo5wSH9NXmPuiQRGv6hXTfXqYWAAoiUdQFdF+3rwJJF9B9fxZhoDAS7b7Z9Hbfp+daKCiclOLu6+urXCSKUsein/8ge32VkySlr/uuiiwQk0QaVSM13dfa1NggAMnuvkPRmivaV4PbUBwSrelT4d13AwQBSTZKMCkTUbZjkSQ1iyQkIQlJSEISkpCEJCQhCUlIQhKSkIQkJCEJSUhCEpKQhCQkIQlJSEISkpCEJCQhCUlIQhKSkIQkJCEJSUhCEpKQhCQkIQlJSEISkpCEJCQhCUlIQhKSkIQkJCEJSUhCEpKQhCQkIQlJSEISkpCEJCQhKZQE/R6nYJIhmjQoaM1+rdbv95uaVixGfJfdCJKqGkajYZp102wYUlUwicTq9dZPbx+rQWXxvJT797bPBkaQtoq6qV7PutWpMn4fddrDtHwX5F+xrN765/NtNchUnguERxfQ8f0higZVUIY0a81flPHtqDO0UqiICvE9va02mcVSVmet6UR3FKIfC4PBYDAYTOpjDW9u/olLA4F0RrfvYz3vRh/TC9HNxd3rrGGbQnRdsRmKP3n3F3UXJ/ppI+KuiL59ZmZ2S5cuXK9DIGNvawEgETgyMhFcR/SPI6nca1+vD3ePkxxNTJKi0+Rf5q1sSTVngkkZTSbjeVHTtAKRfU8UhUdmU5T8lFoMElUl825XPMmLI/t6Lf/9nuSV6EVzl2VapeviWrwRPkUkn6ywLP8N2o7eFqt2Z9eqj5Jikk9W/CrTg0bXbLfF9pblYkg7mbMdH5iWSyFtabLEsngk0a8mwS+QC9cwEZIugyT2LA3b/yVPmrXFXPesNrnakWvZK+DH5/GRpBK58+m3nXPChp1b55pKOmeufAKSrjg3WX08ujn1zwkc3ozs6WF3GTgZyYkNex+dZMGsdofus4Px4cSkrSs/vk3wqwPDzmi7zw5yDtJORhbsyJ1o0X0WPdidkeS5lHg7cbvPWHPquUmey9mJQI23zxh/rUjSTsbaiaTVOG9DYH+jcJLnCtmJP7B9lj6S56I70f+jvhfNh8c4b0PSQaLD8kvLaPlIFa2off2dcKtSQSKTf6tkqEZ1j0QHUG15l+dTiScRT5V4yJ8LIMm26vVb4UCJJunKPGsYzp8LJlGVJpfhx0ooSdenXcnYzv+hJEf1ADxWueSHCxVGogXhl4dBslXAYvH9WtRAKhhJNdTZnE3aHSA4yS0WgGOVUx4fvjQ2C0BSjevWNK+zROQ3zGf7HghJhheLXG5yx1wsBokuT/WFyaEFYbotCPwkqtKK5UeQSvkmixXxebwokr08CszTVQMWiIdkqwqwYkEXq1wMY4WRVMMgy6MASgItCNdhHi6SzFEscs7JClIFkgzo8gQXhCNI25sF+592T5Z8wDog2aeHXQxcz3zWYL2A5iTZS1WE3izsxVo2fSofSVWNEqS4OSBSENTAgnAsyVGBL+xeGfRYO5J9eoCc/RtC4iSZo1jYqhxZLLdnOSTCKQFPjxJ0Q+AgDe7BH2EnqiV8DLHLID1ZhEROTxa8PJCC4BfVpz7S1XrBgwLeLDyVXQbBxc3xBN8QIkCtztV+1pka+JP5dKm0MscYQhYLvDxRN4QwkDkP/rREb8CDso9VrOme4YEXBDeN+kv4a6Le5p4HxVUsgJ7oG0IgKB/9Qs9aaX3oCOSomhzFguUhBYHZUf0xVR3w5vWjwInine5DQHm+gkCimtKY7bHzVqhxoZwL+zFLRQ8Q5IbgA9Wv34Egms/nGryme6q4xYIeoNCRIRyUveUA0fzwNCpP9cVfLNyXcHwe2oZGbMNB1hVulMz5KpD3hrAFVQ/7Kiw9ru7rouDFwr4hcB4gkoY5b8cE2ahBnxsFm+4jZ+5IUERfhcXa1PhququKvFnE6KgeSEnka+y83ddThUz39ADF8qikrybhscPbfT1Vc3k3ye17uDuqByrxtCF23pac3ddbKt90D525A0D1GW8bYueJu/tuVc7NwrkhxFkgUrWzcdoQOz+LeCjnwh6zIEgh411SidN9PRXzE6ChoJDxLqnE6b52CvFAjfr01J+Mitl9Y5IaDcZ4l1SsTZ+/pscgmQ3IeJcUir/78pI4xrukwjsm8pFIG0q2r8LyydV9eUjqqdoQOzzdF04y6t3TtSF24N0XSjpivEsq0O4LIxn1qej/ZEbTy0DeZ0JIka9Nzxtr0O8fTyJ9NTX/xfEK0qhYJNhr0/PmIxoVSSLz6rn7KiyRY2IEKfF5NclENKpQksC+CkvoS9oQEumr6QbRrCuBKxVISkFfhSXwS6QBpEY6+iosvcFB9z0gpaivwnIwJu6RUtZXYbFWxd8oHymNfRWW3y9pdyQB82qS2XXfwhaU4r4Ki9d9C27V5v5yZBrjdN+CdOLXpucN6b7NAu2rl9OG2Ollaub0mC9HpjG9fw2EwWAwmFPkf/XjNeCDVnhnAAAAAElFTkSuQmCC;" vertex="1" parent="1">
          <mxGeometry x="-55.81999999999999" y="-120" width="55" height="63.12" as="geometry" />
        </mxCell>
        <mxCell id="KjTmBkhDE84WE-KOnru3-15" value="" style="shape=image;verticalLabelPosition=bottom;labelBackgroundColor=default;verticalAlign=top;aspect=fixed;imageAspect=0;image=https://www.netreo.com/wp-content/uploads/amazon-backup-vault.png;" vertex="1" parent="1">
          <mxGeometry x="220.9" y="282" width="58" height="56.26" as="geometry" />
        </mxCell>
        <mxCell id="KjTmBkhDE84WE-KOnru3-16" value="" style="shape=image;verticalLabelPosition=bottom;labelBackgroundColor=default;verticalAlign=top;aspect=fixed;imageAspect=0;image=https://images.ctfassets.net/k49d63tr8kcn/6tCRdmAKjAcmIFB7c7uN4y/af7b623e011044ee70dc7aeb38ce9ad3/amazon_rds_with_post-1-.svg;" vertex="1" parent="1">
          <mxGeometry x="-77.58" y="288.56" width="51.44" height="51.44" as="geometry" />
        </mxCell>
        <mxCell id="KjTmBkhDE84WE-KOnru3-17" value="" style="shape=image;verticalLabelPosition=bottom;labelBackgroundColor=default;verticalAlign=top;aspect=fixed;imageAspect=0;image=data:image/png,iVBORw0KGgoAAAANSUhEUgAAAOEAAADhCAMAAAAJbSJIAAABLFBMVEX///8RWY0bdbwGSXb0eSD7sEAAPG4ARXMFR3OtvctMbY4RX5kAWI8AcsEAV5EDRnH/szUANmv4ehwAcsD9exUAQnIAOGz/sjgAQ3IAM2kNU4X5sD//tDIAcMNthp4AVJBziJvpdyYlW4jW3uXx9feInrPl6u8KTn4hVn8ZcLRFfa6/cEizbk64b0udr8B3kanEz9nG0do2YodXeZcVZqWvmXovebVPf6qCjJPidi39eQCrjmTueCFmYnWobFQaVH6zwc4AKWTVpGHgqFPdqFbFn22fk4Zig6O2m3bsrEuNj47So2OkloDpq06UkItNaYFqdXpRX3yUaGLFcUKcd3tedqCvd2tCdazYeEGEZmeaal18d5HeeDqJf3GRgm2+nXGpd22UaV90ZG9hYnQXyil0AAAK5UlEQVR4nO2deVfaShjGwShQDCmEQHApVBS31g2XirXotS61Lr3V9rrU3qX9/t/hTiJLZgszaJIZzjz/3HPKPUd+Pu82kzETiykpKSkpKSkpKSkpKSkpKSkpKQ2kVmv18ovZqL9FUJpeTueKhWQhMba3sj8T9bd5bk0vrxcAnfYoQJmYr60ODOXsi7KWS5Q0WMlCsZiurUX95Z6smf0VQNcxj0S5PB31l+xfa7V6kUrXVimR09ZlLD6grIwVe9G1rQSUhfK+RJSgrCRZ6ToqJIrzKzIUH1BWknhZYZPTSOq1NYEpZ1ZX5kHi9UXXpSwWxCw+M6CsjCUKqSfhteSk5YlYxQeUlQR34vWiLGqCTD6grJSKCWa6lPbyJaPRIC1z9YgnH1BWSjmexJsbj8eHNnReymjS0ikrPHQpFw9oCGhhQ0+xQgLKXGE95OLTKiscideiaxO6lKPj7JSg+CRCW3aBslLgKiseOi+ho43ROeaAdSjnAy8+oKwUc+x0KZQOJXQp9bmXKUbKVNAzwYs/uKaVcRyPQOgGrK6xQoK0HEsHR5hg/BZE8+iErbRktTIZOSGdzofwMS2Zik+UhH7eMRAyFp/oCHvTMRC2i48PZSSELOaxEzppuRFP0fIyAkJmOnZCl3J0XCNZGTIhFx0foRuwo3i3DI2QIzL7J3QpnbSMgJDcz4MgHHLScjx8wv74+iQcGhpNKUJFqAgVoSJUhIpQESpCRagI+yfM5zOu8oNJmM/fbG8efLz4eHh0fDLkSyklYWbr+CKbtUcc2XZ24qjswyghYX7rU4uuLTt7+jozOISZSxvmc5U9XKQwSke4dZDF+VzGz68GgTB/M0EwsIW4SXRRLsL84gSNz0H8RHJRKsL8og+fg3hOcFEmQn8HHU2+xruGRIT5RTQFbRstq/aWxIQG4mB24mzz+PzoFOqN9hEWp9IQGmmY72I7n8mD2fTVuyNv+5h8JyuhkYYczJ7nOxmXOfF8hJsoCSEKCHX3/NapTybKQWjUIcDJbdgobw2yL/MSEiKA2W00EjOX3Vw8yMhHqH+xH0UDBIjdX4Eto4f1erX+5c/Lo9NJGw/Rxzg978Rp9p2EhHEdyACdYevzARFwaOikE6ZZZK6Rg9CV61Vmi7ya3+p4aH+WmpCuTiLaxwNPeDmYhBJHKSgxhvtfw2/LMP+6W2nKUhHqxterN43d4eHdxvW370NUyMxRt1sswh8JTWhUm1OWaZrDQKZp7Qz/dUNh3OrONBPyzDRGdcly4bqydpaI3eJV10L7TBpC4wrlc63c+YYjZj53LcxuSzK16fFrC+dzfbxdQAFfe9bAEyi+oIR6tUEwsGXj1A0d0MY2TcUk1KtTVECAOEwFHLFRg8Uk9AcEgfqNBpg9xrJURMJegMPm2zwZ0D6UYr8UAwSt0DK9/9T1EAYkbZcKSIgCWuZ18+7u/s1up3mY5gIF8B2hWQpHiACa5lXVcBfA+o+G1fqnGzIgOpGKSahXd6F4vI0b7U/y+b92TKeSUgFleLqGOGgtGd3PwArie2Nn54EPUDBCFPCtB7D1hLQzezMCikXoC4isgFkBhSL0B4z3BygSYQ/AuA+gTQcUiBArMhXkf/ACllkdFIgQbRMdB41KRUcI2UNUIEJqm6j8PDv6UoEIEQcn6eehBCKkOagbh9kRe/JnxUP4isdBUQhpDgJAdwPGfl8x9McvnM+cw4D+DgpCSA1R42Nrh8me+Lv6KpNxns2c2jwOCkIYb1By8L3n2a59cXZ0doEcL+npoBiExhvKLFo5hXCw0zO9iowohPoviwyIEmJicFAIwviuF/CNZ5LxRilBLA6KQGg0LbKDjnyPIjIBCkAYpznoBHCdfpzUPmECjJ5Qv7OogM7W9yEZMXux2OvPEEQhNB46hdR8QAEBYuXvEZzRzm6y4YlAWN3pWGhWdYwQlJvqeyRUbfsf2rF1AQk9rcJs4hY+2hj/eTDSOjRkZ+3Dyy12PgEI7ztBatWJgG4oV/Q/f25++ufT5mV5oeffAYlF2J1nzAbZwvavwnD/yImPTgjC2w7htS+htH+71i2lJrovM3iESxTCdoGVlbAbpbdEQr3+Szd0mQmXOrV0l9QN9equNdX8EDcMQ1JCb7f4iiPq9V3TfX54+/bqx4/v3wnPB4Un/NDt+NhU6tmgciitnaaEHsbjnsEbNRHZgdv5l78bCkDYLTXD5hQ8mOrzCCDPsCYOoXcPw2x4EY36MzgoAGFc9+wkmsMfjBajbtzBpxOafTkoBOEVtBH18KtaMYxK9a4BnfqymrJ2Cycaod1SUDN3G41hCz62ZzUrsnZ8x8Tf6Bk9KDxbDko707gm3lOOIUKAMhPGDdpJSy9gv4Tx8AnnCIgPPogtwD4JNzwvTgztzZCE9ybqdBet/1rDXH+E3h8cIOF+0fuDSE+fjP9IZ54fO2T8CYSeLNS0UnCEsT3oTaKEOAUTzAPOaFpLnQVwX4QL3pd7arkAbxhazUEmkt7vqRu/GhCjae5cf4VOffFrzvtTC+vBAcZi6/AbywmEDuPvt1OWc5bUPVHauK8b3km8D8BRyMJEoC+en4VNJMWpy6hXf9/dN5v3d1+rBrKW4gfcgHIjsRwkYCy2DL9ol/4eWucsqXOiFPuAnxD6pSbngwWMxebhewOohFRxA8YhC3OBX3QxPaY9DZEXcANOwlrQgLFYDX7lNSUVn41wAXIwuRc8IBqnPqn4LIRwxAQfo46m4XrKG6d8gHAShhGjjpA45UTkAoQ7YbIeDmAsVof7Pl8q8gDC05qWCO0er1nYRL5U5AFEkvBFWIBgkYG0jGDuRhiag5KwcBIeYCy20n8qsgPCVSaphQmIjTYciMyAcJUJqVF0NQsvhjmqDSvgBgIY8MCNC01FZkRGQKSMhpuEj1rps6AyAsL3kgS/oiApXeoLkY0QDhAtF8mNljPJZD+ITIBwn9Byq1EA4gMqW0FlARyHAYshjaO40GrDhMgPmChHBYjP4CyIvQF1pIyGNm+TtI5e0/kMhDpSRrVob5StoxciPpkQGWW0YsQXA89o6I2WTyREAccC3OBm0yx2F/CTCDHA/agB8c23XohcgOFPoySt8iFy5WBkjRDWMheiDyDSJrREBOM2WcvocOOHSAeEV7wAMNCHTHyqcSBSAcdRBwN8EMov3EXe23LRYVsrCAXIg0jmWxAdkBCoKcqqnwyIXjca7TBKFp6LZEQSILInI6KDjmpY0yDWGwIg2gYFBST1RVIy4oBoGxSqTcBiQuxZYwQGBIt+LBfxetMrBbVihEv63lodQ1caWDL2iFAtJ8gsStM0tphCIxWOUAxwTIjVhJ9m99CNDSRSvRGKXbqdjGrfkEczdcLt3URCPEJLyZAfv/SpchEj9NjYiVANc7AwH+2mE7sIvb874NC6POgSAk5qNO0X8XrT3vSnlRjBuwSqWQ2rN+1sdA3EAlRLil9EEaXxZHzMRlBCsSlGnhrjVY3Q/J3eiK3l3RRMy1JjvForoPvhjuZSpAgVfI6haSZN6IwElQqR72v3rdoYbhimopQR2tY0saZCEVqUrYaiOiEWnI4S8xE/WnoGrfrYmBR9qcSmmTLNxsSefE2QrLU9UlGVtkcQVcthvbFYHxQDHzWbhofxQiHEw6Ihab/UDdVSbkXmHkhVO1STufRgBWhXM2XAmCzOS7AX07em02OlwUtAWPIO2UpKSkpKSkpKSkpKSkpKAut/PaCXII/4bycAAAAASUVORK5CYII=;" vertex="1" parent="1">
          <mxGeometry x="147.4" y="61" width="23.19" height="23.19" as="geometry" />
        </mxCell>
        <mxCell id="KjTmBkhDE84WE-KOnru3-18" value="" style="shape=image;verticalLabelPosition=bottom;labelBackgroundColor=default;verticalAlign=top;aspect=fixed;imageAspect=0;image=data:image/png,iVBORw0KGgoAAAANSUhEUgAAAOEAAADhCAMAAAAJbSJIAAABLFBMVEX///8RWY0bdbwGSXb0eSD7sEAAPG4ARXMFR3OtvctMbY4RX5kAWI8AcsEAV5EDRnH/szUANmv4ehwAcsD9exUAQnIAOGz/sjgAQ3IAM2kNU4X5sD//tDIAcMNthp4AVJBziJvpdyYlW4jW3uXx9feInrPl6u8KTn4hVn8ZcLRFfa6/cEizbk64b0udr8B3kanEz9nG0do2YodXeZcVZqWvmXovebVPf6qCjJPidi39eQCrjmTueCFmYnWobFQaVH6zwc4AKWTVpGHgqFPdqFbFn22fk4Zig6O2m3bsrEuNj47So2OkloDpq06UkItNaYFqdXpRX3yUaGLFcUKcd3tedqCvd2tCdazYeEGEZmeaal18d5HeeDqJf3GRgm2+nXGpd22UaV90ZG9hYnQXyil0AAAK5UlEQVR4nO2deVfaShjGwShQDCmEQHApVBS31g2XirXotS61Lr3V9rrU3qX9/t/hTiJLZgszaJIZzjz/3HPKPUd+Pu82kzETiykpKSkpKSkpKSkpKSkpKSkpKQ2kVmv18ovZqL9FUJpeTueKhWQhMba3sj8T9bd5bk0vrxcAnfYoQJmYr60ODOXsi7KWS5Q0WMlCsZiurUX95Z6smf0VQNcxj0S5PB31l+xfa7V6kUrXVimR09ZlLD6grIwVe9G1rQSUhfK+RJSgrCRZ6ToqJIrzKzIUH1BWknhZYZPTSOq1NYEpZ1ZX5kHi9UXXpSwWxCw+M6CsjCUKqSfhteSk5YlYxQeUlQR34vWiLGqCTD6grJSKCWa6lPbyJaPRIC1z9YgnH1BWSjmexJsbj8eHNnReymjS0ikrPHQpFw9oCGhhQ0+xQgLKXGE95OLTKiscideiaxO6lKPj7JSg+CRCW3aBslLgKiseOi+ho43ROeaAdSjnAy8+oKwUc+x0KZQOJXQp9bmXKUbKVNAzwYs/uKaVcRyPQOgGrK6xQoK0HEsHR5hg/BZE8+iErbRktTIZOSGdzofwMS2Zik+UhH7eMRAyFp/oCHvTMRC2i48PZSSELOaxEzppuRFP0fIyAkJmOnZCl3J0XCNZGTIhFx0foRuwo3i3DI2QIzL7J3QpnbSMgJDcz4MgHHLScjx8wv74+iQcGhpNKUJFqAgVoSJUhIpQESpCRagI+yfM5zOu8oNJmM/fbG8efLz4eHh0fDLkSyklYWbr+CKbtUcc2XZ24qjswyghYX7rU4uuLTt7+jozOISZSxvmc5U9XKQwSke4dZDF+VzGz68GgTB/M0EwsIW4SXRRLsL84gSNz0H8RHJRKsL8og+fg3hOcFEmQn8HHU2+xruGRIT5RTQFbRstq/aWxIQG4mB24mzz+PzoFOqN9hEWp9IQGmmY72I7n8mD2fTVuyNv+5h8JyuhkYYczJ7nOxmXOfF8hJsoCSEKCHX3/NapTybKQWjUIcDJbdgobw2yL/MSEiKA2W00EjOX3Vw8yMhHqH+xH0UDBIjdX4Eto4f1erX+5c/Lo9NJGw/Rxzg978Rp9p2EhHEdyACdYevzARFwaOikE6ZZZK6Rg9CV61Vmi7ya3+p4aH+WmpCuTiLaxwNPeDmYhBJHKSgxhvtfw2/LMP+6W2nKUhHqxterN43d4eHdxvW370NUyMxRt1sswh8JTWhUm1OWaZrDQKZp7Qz/dUNh3OrONBPyzDRGdcly4bqydpaI3eJV10L7TBpC4wrlc63c+YYjZj53LcxuSzK16fFrC+dzfbxdQAFfe9bAEyi+oIR6tUEwsGXj1A0d0MY2TcUk1KtTVECAOEwFHLFRg8Uk9AcEgfqNBpg9xrJURMJegMPm2zwZ0D6UYr8UAwSt0DK9/9T1EAYkbZcKSIgCWuZ18+7u/s1up3mY5gIF8B2hWQpHiACa5lXVcBfA+o+G1fqnGzIgOpGKSahXd6F4vI0b7U/y+b92TKeSUgFleLqGOGgtGd3PwArie2Nn54EPUDBCFPCtB7D1hLQzezMCikXoC4isgFkBhSL0B4z3BygSYQ/AuA+gTQcUiBArMhXkf/ACllkdFIgQbRMdB41KRUcI2UNUIEJqm6j8PDv6UoEIEQcn6eehBCKkOagbh9kRe/JnxUP4isdBUQhpDgJAdwPGfl8x9McvnM+cw4D+DgpCSA1R42Nrh8me+Lv6KpNxns2c2jwOCkIYb1By8L3n2a59cXZ0doEcL+npoBiExhvKLFo5hXCw0zO9iowohPoviwyIEmJicFAIwviuF/CNZ5LxRilBLA6KQGg0LbKDjnyPIjIBCkAYpznoBHCdfpzUPmECjJ5Qv7OogM7W9yEZMXux2OvPEEQhNB46hdR8QAEBYuXvEZzRzm6y4YlAWN3pWGhWdYwQlJvqeyRUbfsf2rF1AQk9rcJs4hY+2hj/eTDSOjRkZ+3Dyy12PgEI7ztBatWJgG4oV/Q/f25++ufT5mV5oeffAYlF2J1nzAbZwvavwnD/yImPTgjC2w7htS+htH+71i2lJrovM3iESxTCdoGVlbAbpbdEQr3+Szd0mQmXOrV0l9QN9equNdX8EDcMQ1JCb7f4iiPq9V3TfX54+/bqx4/v3wnPB4Un/NDt+NhU6tmgciitnaaEHsbjnsEbNRHZgdv5l78bCkDYLTXD5hQ8mOrzCCDPsCYOoXcPw2x4EY36MzgoAGFc9+wkmsMfjBajbtzBpxOafTkoBOEVtBH18KtaMYxK9a4BnfqymrJ2Cycaod1SUDN3G41hCz62ZzUrsnZ8x8Tf6Bk9KDxbDko707gm3lOOIUKAMhPGDdpJSy9gv4Tx8AnnCIgPPogtwD4JNzwvTgztzZCE9ybqdBet/1rDXH+E3h8cIOF+0fuDSE+fjP9IZ54fO2T8CYSeLNS0UnCEsT3oTaKEOAUTzAPOaFpLnQVwX4QL3pd7arkAbxhazUEmkt7vqRu/GhCjae5cf4VOffFrzvtTC+vBAcZi6/AbywmEDuPvt1OWc5bUPVHauK8b3km8D8BRyMJEoC+en4VNJMWpy6hXf9/dN5v3d1+rBrKW4gfcgHIjsRwkYCy2DL9ol/4eWucsqXOiFPuAnxD6pSbngwWMxebhewOohFRxA8YhC3OBX3QxPaY9DZEXcANOwlrQgLFYDX7lNSUVn41wAXIwuRc8IBqnPqn4LIRwxAQfo46m4XrKG6d8gHAShhGjjpA45UTkAoQ7YbIeDmAsVof7Pl8q8gDC05qWCO0er1nYRL5U5AFEkvBFWIBgkYG0jGDuRhiag5KwcBIeYCy20n8qsgPCVSaphQmIjTYciMyAcJUJqVF0NQsvhjmqDSvgBgIY8MCNC01FZkRGQKSMhpuEj1rps6AyAsL3kgS/oiApXeoLkY0QDhAtF8mNljPJZD+ITIBwn9Byq1EA4gMqW0FlARyHAYshjaO40GrDhMgPmChHBYjP4CyIvQF1pIyGNm+TtI5e0/kMhDpSRrVob5StoxciPpkQGWW0YsQXA89o6I2WTyREAccC3OBm0yx2F/CTCDHA/agB8c23XohcgOFPoySt8iFy5WBkjRDWMheiDyDSJrREBOM2WcvocOOHSAeEV7wAMNCHTHyqcSBSAcdRBwN8EMov3EXe23LRYVsrCAXIg0jmWxAdkBCoKcqqnwyIXjca7TBKFp6LZEQSILInI6KDjmpY0yDWGwIg2gYFBST1RVIy4oBoGxSqTcBiQuxZYwQGBIt+LBfxetMrBbVihEv63lodQ1caWDL2iFAtJ8gsStM0tphCIxWOUAxwTIjVhJ9m99CNDSRSvRGKXbqdjGrfkEczdcLt3URCPEJLyZAfv/SpchEj9NjYiVANc7AwH+2mE7sIvb874NC6POgSAk5qNO0X8XrT3vSnlRjBuwSqWQ2rN+1sdA3EAlRLil9EEaXxZHzMRlBCsSlGnhrjVY3Q/J3eiK3l3RRMy1JjvForoPvhjuZSpAgVfI6haSZN6IwElQqR72v3rdoYbhimopQR2tY0saZCEVqUrYaiOiEWnI4S8xE/WnoGrfrYmBR9qcSmmTLNxsSefE2QrLU9UlGVtkcQVcthvbFYHxQDHzWbhofxQiHEw6Ihab/UDdVSbkXmHkhVO1STufRgBWhXM2XAmCzOS7AX07em02OlwUtAWPIO2UpKSkpKSkpKSkpKSkpKAut/PaCXII/4bycAAAAASUVORK5CYII=;" vertex="1" parent="1">
          <mxGeometry x="-46.53" y="282" width="23.19" height="23.19" as="geometry" />
        </mxCell>
        <mxCell id="KjTmBkhDE84WE-KOnru3-20" value="" style="shape=image;verticalLabelPosition=bottom;labelBackgroundColor=default;verticalAlign=top;aspect=fixed;imageAspect=0;image=https://cdn.iconscout.com/icon/free/png-256/free-amazon-s3-2968702-2464706.png;" vertex="1" parent="1">
          <mxGeometry x="22.979999999999997" y="275.13" width="70" height="70" as="geometry" />
        </mxCell>
        <mxCell id="KjTmBkhDE84WE-KOnru3-21" value="" style="shape=image;verticalLabelPosition=bottom;labelBackgroundColor=default;verticalAlign=top;aspect=fixed;imageAspect=0;image=data:image/png,iVBORw0KGgoAAAANSUhEUgAAAOEAAADhCAMAAAAJbSJIAAABLFBMVEX///8RWY0bdbwGSXb0eSD7sEAAPG4ARXMFR3OtvctMbY4RX5kAWI8AcsEAV5EDRnH/szUANmv4ehwAcsD9exUAQnIAOGz/sjgAQ3IAM2kNU4X5sD//tDIAcMNthp4AVJBziJvpdyYlW4jW3uXx9feInrPl6u8KTn4hVn8ZcLRFfa6/cEizbk64b0udr8B3kanEz9nG0do2YodXeZcVZqWvmXovebVPf6qCjJPidi39eQCrjmTueCFmYnWobFQaVH6zwc4AKWTVpGHgqFPdqFbFn22fk4Zig6O2m3bsrEuNj47So2OkloDpq06UkItNaYFqdXpRX3yUaGLFcUKcd3tedqCvd2tCdazYeEGEZmeaal18d5HeeDqJf3GRgm2+nXGpd22UaV90ZG9hYnQXyil0AAAK5UlEQVR4nO2deVfaShjGwShQDCmEQHApVBS31g2XirXotS61Lr3V9rrU3qX9/t/hTiJLZgszaJIZzjz/3HPKPUd+Pu82kzETiykpKSkpKSkpKSkpKSkpKSkpKQ2kVmv18ovZqL9FUJpeTueKhWQhMba3sj8T9bd5bk0vrxcAnfYoQJmYr60ODOXsi7KWS5Q0WMlCsZiurUX95Z6smf0VQNcxj0S5PB31l+xfa7V6kUrXVimR09ZlLD6grIwVe9G1rQSUhfK+RJSgrCRZ6ToqJIrzKzIUH1BWknhZYZPTSOq1NYEpZ1ZX5kHi9UXXpSwWxCw+M6CsjCUKqSfhteSk5YlYxQeUlQR34vWiLGqCTD6grJSKCWa6lPbyJaPRIC1z9YgnH1BWSjmexJsbj8eHNnReymjS0ikrPHQpFw9oCGhhQ0+xQgLKXGE95OLTKiscideiaxO6lKPj7JSg+CRCW3aBslLgKiseOi+ho43ROeaAdSjnAy8+oKwUc+x0KZQOJXQp9bmXKUbKVNAzwYs/uKaVcRyPQOgGrK6xQoK0HEsHR5hg/BZE8+iErbRktTIZOSGdzofwMS2Zik+UhH7eMRAyFp/oCHvTMRC2i48PZSSELOaxEzppuRFP0fIyAkJmOnZCl3J0XCNZGTIhFx0foRuwo3i3DI2QIzL7J3QpnbSMgJDcz4MgHHLScjx8wv74+iQcGhpNKUJFqAgVoSJUhIpQESpCRagI+yfM5zOu8oNJmM/fbG8efLz4eHh0fDLkSyklYWbr+CKbtUcc2XZ24qjswyghYX7rU4uuLTt7+jozOISZSxvmc5U9XKQwSke4dZDF+VzGz68GgTB/M0EwsIW4SXRRLsL84gSNz0H8RHJRKsL8og+fg3hOcFEmQn8HHU2+xruGRIT5RTQFbRstq/aWxIQG4mB24mzz+PzoFOqN9hEWp9IQGmmY72I7n8mD2fTVuyNv+5h8JyuhkYYczJ7nOxmXOfF8hJsoCSEKCHX3/NapTybKQWjUIcDJbdgobw2yL/MSEiKA2W00EjOX3Vw8yMhHqH+xH0UDBIjdX4Eto4f1erX+5c/Lo9NJGw/Rxzg978Rp9p2EhHEdyACdYevzARFwaOikE6ZZZK6Rg9CV61Vmi7ya3+p4aH+WmpCuTiLaxwNPeDmYhBJHKSgxhvtfw2/LMP+6W2nKUhHqxterN43d4eHdxvW370NUyMxRt1sswh8JTWhUm1OWaZrDQKZp7Qz/dUNh3OrONBPyzDRGdcly4bqydpaI3eJV10L7TBpC4wrlc63c+YYjZj53LcxuSzK16fFrC+dzfbxdQAFfe9bAEyi+oIR6tUEwsGXj1A0d0MY2TcUk1KtTVECAOEwFHLFRg8Uk9AcEgfqNBpg9xrJURMJegMPm2zwZ0D6UYr8UAwSt0DK9/9T1EAYkbZcKSIgCWuZ18+7u/s1up3mY5gIF8B2hWQpHiACa5lXVcBfA+o+G1fqnGzIgOpGKSahXd6F4vI0b7U/y+b92TKeSUgFleLqGOGgtGd3PwArie2Nn54EPUDBCFPCtB7D1hLQzezMCikXoC4isgFkBhSL0B4z3BygSYQ/AuA+gTQcUiBArMhXkf/ACllkdFIgQbRMdB41KRUcI2UNUIEJqm6j8PDv6UoEIEQcn6eehBCKkOagbh9kRe/JnxUP4isdBUQhpDgJAdwPGfl8x9McvnM+cw4D+DgpCSA1R42Nrh8me+Lv6KpNxns2c2jwOCkIYb1By8L3n2a59cXZ0doEcL+npoBiExhvKLFo5hXCw0zO9iowohPoviwyIEmJicFAIwviuF/CNZ5LxRilBLA6KQGg0LbKDjnyPIjIBCkAYpznoBHCdfpzUPmECjJ5Qv7OogM7W9yEZMXux2OvPEEQhNB46hdR8QAEBYuXvEZzRzm6y4YlAWN3pWGhWdYwQlJvqeyRUbfsf2rF1AQk9rcJs4hY+2hj/eTDSOjRkZ+3Dyy12PgEI7ztBatWJgG4oV/Q/f25++ufT5mV5oeffAYlF2J1nzAbZwvavwnD/yImPTgjC2w7htS+htH+71i2lJrovM3iESxTCdoGVlbAbpbdEQr3+Szd0mQmXOrV0l9QN9equNdX8EDcMQ1JCb7f4iiPq9V3TfX54+/bqx4/v3wnPB4Un/NDt+NhU6tmgciitnaaEHsbjnsEbNRHZgdv5l78bCkDYLTXD5hQ8mOrzCCDPsCYOoXcPw2x4EY36MzgoAGFc9+wkmsMfjBajbtzBpxOafTkoBOEVtBH18KtaMYxK9a4BnfqymrJ2Cycaod1SUDN3G41hCz62ZzUrsnZ8x8Tf6Bk9KDxbDko707gm3lOOIUKAMhPGDdpJSy9gv4Tx8AnnCIgPPogtwD4JNzwvTgztzZCE9ybqdBet/1rDXH+E3h8cIOF+0fuDSE+fjP9IZ54fO2T8CYSeLNS0UnCEsT3oTaKEOAUTzAPOaFpLnQVwX4QL3pd7arkAbxhazUEmkt7vqRu/GhCjae5cf4VOffFrzvtTC+vBAcZi6/AbywmEDuPvt1OWc5bUPVHauK8b3km8D8BRyMJEoC+en4VNJMWpy6hXf9/dN5v3d1+rBrKW4gfcgHIjsRwkYCy2DL9ol/4eWucsqXOiFPuAnxD6pSbngwWMxebhewOohFRxA8YhC3OBX3QxPaY9DZEXcANOwlrQgLFYDX7lNSUVn41wAXIwuRc8IBqnPqn4LIRwxAQfo46m4XrKG6d8gHAShhGjjpA45UTkAoQ7YbIeDmAsVof7Pl8q8gDC05qWCO0er1nYRL5U5AFEkvBFWIBgkYG0jGDuRhiag5KwcBIeYCy20n8qsgPCVSaphQmIjTYciMyAcJUJqVF0NQsvhjmqDSvgBgIY8MCNC01FZkRGQKSMhpuEj1rps6AyAsL3kgS/oiApXeoLkY0QDhAtF8mNljPJZD+ITIBwn9Byq1EA4gMqW0FlARyHAYshjaO40GrDhMgPmChHBYjP4CyIvQF1pIyGNm+TtI5e0/kMhDpSRrVob5StoxciPpkQGWW0YsQXA89o6I2WTyREAccC3OBm0yx2F/CTCDHA/agB8c23XohcgOFPoySt8iFy5WBkjRDWMheiDyDSJrREBOM2WcvocOOHSAeEV7wAMNCHTHyqcSBSAcdRBwN8EMov3EXe23LRYVsrCAXIg0jmWxAdkBCoKcqqnwyIXjca7TBKFp6LZEQSILInI6KDjmpY0yDWGwIg2gYFBST1RVIy4oBoGxSqTcBiQuxZYwQGBIt+LBfxetMrBbVihEv63lodQ1caWDL2iFAtJ8gsStM0tphCIxWOUAxwTIjVhJ9m99CNDSRSvRGKXbqdjGrfkEczdcLt3URCPEJLyZAfv/SpchEj9NjYiVANc7AwH+2mE7sIvb874NC6POgSAk5qNO0X8XrT3vSnlRjBuwSqWQ2rN+1sdA3EAlRLil9EEaXxZHzMRlBCsSlGnhrjVY3Q/J3eiK3l3RRMy1JjvForoPvhjuZSpAgVfI6haSZN6IwElQqR72v3rdoYbhimopQR2tY0saZCEVqUrYaiOiEWnI4S8xE/WnoGrfrYmBR9qcSmmTLNxsSefE2QrLU9UlGVtkcQVcthvbFYHxQDHzWbhofxQiHEw6Ihab/UDdVSbkXmHkhVO1STufRgBWhXM2XAmCzOS7AX07em02OlwUtAWPIO2UpKSkpKSkpKSkpKSkpKAut/PaCXII/4bycAAAAASUVORK5CYII=;" vertex="1" parent="1">
          <mxGeometry x="74.78999999999999" y="285" width="23.19" height="23.19" as="geometry" />
        </mxCell>
        <mxCell id="KjTmBkhDE84WE-KOnru3-22" value="" style="shape=image;verticalLabelPosition=bottom;labelBackgroundColor=default;verticalAlign=top;aspect=fixed;imageAspect=0;image=https://d2908q01vomqb2.cloudfront.net/22d200f8670dbdb3e253a90eee5098477c95c23d/2022/09/09/anfw_logo_1.png;clipPath=inset(2.67% 24% 2.67% 24%);" vertex="1" parent="1">
          <mxGeometry x="617.47" y="104.66000000000001" width="61.9" height="56.35" as="geometry" />
        </mxCell>
        <mxCell id="KjTmBkhDE84WE-KOnru3-25" value="" style="shape=image;verticalLabelPosition=bottom;labelBackgroundColor=default;verticalAlign=top;aspect=fixed;imageAspect=0;image=https://static-00.iconduck.com/assets.00/aws-waf-icon-423x512-rhu93ner.png;" vertex="1" parent="1">
          <mxGeometry x="617.47" y="206.22" width="52.69" height="63.78" as="geometry" />
        </mxCell>
        <mxCell id="KjTmBkhDE84WE-KOnru3-28" value="" style="shape=image;verticalLabelPosition=bottom;labelBackgroundColor=default;verticalAlign=top;aspect=fixed;imageAspect=0;image=data:image/png,iVBORw0KGgoAAAANSUhEUgAAAOEAAADhCAMAAAAJbSJIAAAA2FBMVEX1hTb///+dUCX1gzD3nGT0fR/95df0eRL1gCr5hzeYTST5upj1fyf97OL1hDP0fSH6yq+XQACWPgD7072cTSD7zrX838/++PTsgDT2jUaaShqXQwWZRhH5vpz2lFP4rH+0XimsWSjGaS32mFz5tY7+8OjadTHr3df3oWz82cX6xKb2kEzcxrz07enTtqrcdjHNbS6vdVnGn43n19D4qXn4sIb0dADodh/SaBa6inTWu6+kVCakXTigVi3FnYurbU7s0cTGXxCmSwOzWR2mY0C+kHvGnoy1gGcw69URAAAO3klEQVR4nO2deVviOhvGu1hoEdspAmUpioyKKIrrOcdtPIu+fv9v9KaULknTNjvjXHP/NdcoTX8+yZ3nSUOq6b+6tG3fgHT9Jvz6+k349aWMMDjZa/QX+/v7i8Wi39g7CVQ1LJswaPQmDzvDtudZluUlWv/bvDg7Pl80ZKNKJNzb393RLKtt26arYeS6pt32LG94tru/J+825BAG/clB0/JK0FBS0/as5sWkLyeaEggbk+9tyyZhgzhtq/190hB/O4IJg8W9Z9kmJV0i07bsh4XYOxJKGPTO2h4rXSLbs8/2RfZXcYT9Q4sbbxNKz7rvC7svQYTBuWbZQvBi2ZZ2LiiQQggbh1ab1lnq5LateyG+I4BwcSA0fJlM60CA7XAT9oYWzehziabIjHHY2zJhz/WouqfrBi7dBzyNk5GLcDGk49M0q6f3LLqPuN6Qq69yEDYOLFp7Mb+Dz32nnVNc64DDc5gJg0Oq8RerGWXYe03qz5nWPfPcwUrYazP4p328/uwDy0etc6WEewce/U0Cm9l8nM5sNvKGbCUWE+GEoYMCWfubz+9Tmk0s15ooItwbtlluUDMP0kscsCWw7QuGMNITnrMFEIQwu709piBGYdyVThjsMN5cYjOxjlnzPO+A1lQpCfsm6625JnQh6jWARGabsrCiI5w0mUuI1GZisZlNJLdJ11OpCM+YbyvOZvKizmwyeWeSCIMhR5HURF2QIbNJZQ8pBiM5YcPkWKOAbCYWs9kAmSZ5okpMuKBOs3NCbCYWVaWIXhAZ1gIIexydqmAzsdjNJlLzm1jCc667KdhMLA6zASLN4cgId7kiWLSZWDxmEyGSzRpEhMdcEcTZzOa6fCtYVtl1qQk5AdOiqSimMooSkYCQExBvM7H4zIaso9YTTjjvosRmYvGZDUCsr/xrCb/x2QFUNBXFWkalatauNdYRLngBS20mFqfZAMS6UqOGkPtvjM1m8uLJbNaq7CO1hIHG3X5ddsVrNuAOq9PwakLG9ZRMlTYTi9ds8us/1IQPbEtOOZVkM3lxZjZA7UNWwm+8HUhrk0zJx9x/R6sqC68g5P/jVmQzeXFmNlp1V6kg5HaZepuJxW024E5ZCM+4H+yaO0SAAsxGs+/pCWkf82HUPCEkPOEeDxXdpYww4B7+mk2+6rfLvxHAK5sVywh3+LfGuI29TMVwnuR+2uDfyVE685YQCuij4M9qpWoW2z9oZj9meVaHyirJwfGEAvooLIzpCOglkFwb30/xhPeiN8goICzzUyxhX0QfhaSCULOwhRSWcCh6C5caQndISnguYuDDUkKoebj8FEMYMD/bK5caQtfEmA2GkHthASM1hFobk2QUCQP+FKooRYRasxjEIiHLfp5aqSK0H+oJT4TPFJFUEWpWIT0sEEoJoTrC4uIlShhICaE6Qs1CRyJKKKCOwUkdYRt9rIgSci/Q4qWOsLAEjRD2xKcza6kj1DykikIIL+SEUCWhe1FF2JDjM0oJNQveiQITypkqNLWENrwEDhOKLu1TqSREJgyIcF+SzygmhL1GU9OoUkK4sTyhpHym2KhkQjg5zRP2pA1DxYTtfK2vqWlTLSHUWo5QSumLa1M6IVQI5wjlOalyQm+BJTyUNd1rygnzk36OUPwqaSbFhPmV04yQe+tMlRQT5jfZZITf5M0V6gnbPQzhvcwWVROa9xhCSdX9pkXFhLlKPyWkepbu0o5ZEYRUXxbI9hCkhAvy2dC1LhoTuqmFn9CeNC4oGLMZMSUkv+W2uU+9JieAcBfkJCaxG9qTAuEZYYN2vFy3FUIQB9KvH5tnBUKy+d5sPsQp35YI9eChSfS5bM5PCIlqQ7d5lsyk2yIElnhG9BXBdCkjISRYZQMGkz0o3x6hrvdJLCddcUsI6wuLtpbfWLVNQnC3Wq3leMndJoR1Vmq34X3/2yXU9fM6y0nNNCGsXilNDeanIay1nPRZqUbQnmudFZ47bp0wspyq4Zi2mBCWb5eNMpjC7f0MhMAeKywnnS4SwtKRCxtMquPcvjsCYXbufae8AnbLeIXltBHCEiu1vZIvFp006FTciL1HeYWS7bjnXklvSjacbgjx+xNM61jZIZzMCo7xx1gky8IbQtwShokxmJ9SwHIwjAhhMaXhO7pIsXAHOiVLNWWEnib6hEa52tdQJ0n2Ym4I+/DP0QzmKwi1HA8mhCr8L2EwRSGWk1T5GMKvYjBFneSPJkEIc6UF7fkvP5X6bYIYurzH+G1RvVzyiRDmncb1hl8zjH3okMMKwmgu3JF4/LQk7e3Ac6JXOVuAgvDwa9lpcIiWiwjh34XM2/boDw7bnnaL+XctITBV96tYTs/F1FDe3/EPN4RLXPX0RSynjz9FFSXEF5JfwHJQg8m64DL+hWrCcss5/qNJoz+K35k/oLwCtsYvGkwp4Z8lv5c+qED0U6zTVD7G+BMh/Mspv3jbLFrOz0DYq3oU5fx5BxHeVRECy7lALWf7hP2LymOanb9gwvk/VYQYy9k2YanBJHL+mUOElzWEUdEIWc52CQmOaXb+uYQJ/60jjLKcnOVslXBStoKYk/MvTBiMSVrJZTlbJKw0mExjeL1UDwckn8oeIW6NkOjhIdAg1GHC11V9N43kNmPL2RLh3g7hGbHO6hUhvLkmI4wsJ3rSthVCinPgnesbhPDjP1LC6Hz0CcXmlLVE7KfRJxTv0XD++0AIb0NyQmA5wx26PWL8hO4O1THiTniLEC7HRFaTtke5CU7Ari+6JgfjJUI475zSBJFWqnfuOaedOUIYdGa/FOGsg+6n0V+ffynC52SyyAhvulQDkVKqCQfdmwLhbXgtsUXVhKeplWaEy/FUYjdVTOhMUyvNCC87LXktKo9hq3NZINTDFmFqyiK1hM6qFepFws+RxPlCMeF09IghvAoNaU2q7qVGeIUhnPsteWmNUkLQSf05hlB/NeS5qVrCafdVxxE+juS5qdpe2soNwzzhctwiLoNppZLQuW5lsyH8HdKOIS03VUr4bHTw3yEFqam0KVEhIfCZLClFCJ9CaV6jknBqjJ9KCC99oyWpwFBIOGgZ/mWuHehMBdBNJeU16gidGdxJYcKnsSFpwlAYw5aRd1KEMACEcoKojBCE0BhD7cCnt3yMDDnJqboYGsboA2oHJpz7koKoijAKYS4nLRLq7105I1FZDFtG9x1uByF8kjQSFRGuR+ET3A56XhsYiDLmREWEYC7sdpF2UMLb0JCR2KghBOmMkS2ylRAGPgii+OxUCSHISA3Drzs3Uf8Bgii+xFBD+AxC+ANtp0B4OTYkmI0Kwshm4JQUT6h/hBLMRgUhsBkj/Ci0gzlHuGMYxpGIILYzWZhv51m5nwtozTkC990hOUd4badC1jN63zIVv8S4n/tpTwDgdQtjpHjCABCK6Kce8Ys0RRxRFfVRY0R2nrd+NRbST12bmJD/jPR1Hx1fYa6NPVf/pSvETzFHT+PFf+Tm2kfzq6Q1hHeR2bRWvM2SvM8qEv9rl7Rorjf8O2JC/RGkpwIqxZr3hSXifvdZVBWCQfiIvXrJO0qikdjiH4plb0aBxP/Gl/UgNEKad5ToT74hYigSmQ23zawHoeE/4S9f9q6gm6if8j+MIjAbbptZz4TG6Kbk+mWEUXoqosqoe/8i/+HM64oCzBSFhLSGUF9G/dQwBpyItWbDazPOYH2f/rKsgfL3rn1GqY3xzNd+rdnw28zz2mU+S1uoeOnca1eEoZa9hikW/xtf1oD4ub6WcN4xRCBWmg2vzThH60HYmZc3UUGoX62HYot32aYis+HNZpxpDIjLR0kI9cdQBGKF2XDazAYQU/aSEurvIxGIpWbDaTMbwNF7yeVJCINuVwRiybsJA76qcDMGuwbP+4A3bgPshuteSsyG02ZiQMzaExVhXEitEXnC2MQdBNPgsRknAexgSyYKQv1pg/jMk91gzYbHZpzB8wawJN+mINSvYkTD4MlR0Vej6HwvfHFWm3uqnCdICfX/xRkqV6VRzGx4XpPpnMYBNPzCCjcTof4jQeSoFwtmw3E+elwPEgISEeofCSKHpSJvf2EvmlKPIQMkI9R/bMZii30wImZzwWoz6RA0OpjlX2bCzG7Yeyr0gslvrDaT9lBSQFLCZNKIeirjtJF/wSRr0eQMjlLA2mmCklBfdroJI+MzjdwLCxhtJl6RWadq+LVRLkL9LkwRp2xhTDMbtmwmF8DuqKIgZCbUL19CIwsjA2NqNizZjJMF0AhfanJRRkJd//RTRKYkbmM2LDbjrJ5TQL98UYaXUL9NByPoqgy5eDsyG4aiydGmKR+xiTIRgsE4ShFbM2rGtdlQ24yjXbdSwFFI7DFMhHrwNk7/mC2DejgCs6G1GTAAjSyA4zfaE7poCUFP9bs5xlO6OJoXlK9YhPm6Pl0PZSPU55mnRpZzTcVo79D0UdA/M4MBHvpKPknwEIJ6KjOc9XgcUHRWionCGcxy8QMBJMq0hRDq83ffyDNOVyzzYzWeM5i2cnyG/84QQGbCaDdDrqtuOqs4SHCp6yOIb+TXV/NiCfXgI99Vk0CKgAQXWcHhAx30kfmQQ2ZC0FXffIgRBHLGDQk+v5oaEJ7R7byxdVBeQlBvvKCMIJKnA1ZK8LnBKYgewue/lz4blE4IGF8RxojyaLbSaCmj31/NjhC6iM/g4uMmxMQxDuXR7HRA5j1OBDc4jehQPMD3wskngBAwvvsj9NbWlMYGM0IowDobDVbXsyMDQwf8s/PGzSeEEOTjn35YCOQGE3BOZ9enq9VgkG0GBP9enV7PZtPnVgsLB8IX+h8c/pJJCCGojq9ecYHMgUIkhf8ohM/vXgk6BFcQIdDdoz8uh6TRyA8/KEukCokjBFp+htyQo3H4KWD0ZRJKCDKd5aNfMiYJBMZe+LEUfESzYMJI89sbcKe0sRyBz9zciuucqSQQRrq7+vQ747BLEs1uNxx3/JsrCXSRJBFGulze3rz4/jgMR1jSbncUhmPff7m5XVKsDtJKIuFawXx5dfv49gpIIo0jbf75+vZ4e7Wcyz4ZXTZhquDycn53t4x0dze/vFR25Lsywq3pN+HX12/Cr69fn/D/pJo8JLHpXwwAAAAASUVORK5CYII=;" vertex="1" parent="1">
          <mxGeometry x="617.47" y="335.76" width="54.24" height="54.24" as="geometry" />
        </mxCell>
        <mxCell id="KjTmBkhDE84WE-KOnru3-29" value="" style="shape=image;verticalLabelPosition=bottom;labelBackgroundColor=default;verticalAlign=top;aspect=fixed;imageAspect=0;image=https://static-00.iconduck.com/assets.00/aws-api-gateway-icon-423x512-70e4i3mi.png;" vertex="1" parent="1">
          <mxGeometry x="621.87" y="440" width="45.45" height="55.02" as="geometry" />
        </mxCell>
        <mxCell id="KjTmBkhDE84WE-KOnru3-30" value="AWS API Gateway" style="text;html=1;align=center;verticalAlign=middle;resizable=0;points=[];autosize=1;strokeColor=none;fillColor=none;" vertex="1" parent="1">
          <mxGeometry x="588.42" y="495.02" width="120" height="30" as="geometry" />
        </mxCell>
        <mxCell id="KjTmBkhDE84WE-KOnru3-31" value="" style="rounded=0;whiteSpace=wrap;html=1;dashed=1;dashPattern=12 12;" vertex="1" parent="1">
          <mxGeometry x="-145.54" y="430" width="620" height="400" as="geometry" />
        </mxCell>
        <mxCell id="KjTmBkhDE84WE-KOnru3-32" value="" style="rounded=0;whiteSpace=wrap;html=1;dashed=1;dashPattern=12 12;" vertex="1" parent="1">
          <mxGeometry x="-115.54" y="461" width="390" height="139" as="geometry" />
        </mxCell>
        <mxCell id="KjTmBkhDE84WE-KOnru3-33" value="" style="rounded=0;whiteSpace=wrap;html=1;dashed=1;dashPattern=12 12;fontSize=10;" vertex="1" parent="1">
          <mxGeometry x="-125.54" y="650" width="450" height="160" as="geometry" />
        </mxCell>
        <mxCell id="KjTmBkhDE84WE-KOnru3-34" value="AWS RDS for &lt;br&gt;PostgreSQL" style="text;html=1;align=center;verticalAlign=middle;resizable=0;points=[];autosize=1;strokeColor=none;fillColor=none;fontSize=10;" vertex="1" parent="1">
          <mxGeometry x="-87.39999999999996" y="765.76" width="80" height="40" as="geometry" />
        </mxCell>
        <mxCell id="KjTmBkhDE84WE-KOnru3-35" value="AWS S3" style="text;html=1;align=center;verticalAlign=middle;resizable=0;points=[];autosize=1;strokeColor=none;fillColor=none;fontSize=10;" vertex="1" parent="1">
          <mxGeometry x="30.110000000000056" y="765.76" width="60" height="30" as="geometry" />
        </mxCell>
        <mxCell id="KjTmBkhDE84WE-KOnru3-36" value="Private Link" style="text;html=1;align=center;verticalAlign=middle;resizable=0;points=[];autosize=1;strokeColor=none;fillColor=none;fontSize=10;" vertex="1" parent="1">
          <mxGeometry x="-89.45999999999997" y="690.6999999999999" width="80" height="30" as="geometry" />
        </mxCell>
        <mxCell id="KjTmBkhDE84WE-KOnru3-37" value="Private Link" style="text;html=1;align=center;verticalAlign=middle;resizable=0;points=[];autosize=1;strokeColor=none;fillColor=none;fontSize=10;" vertex="1" parent="1">
          <mxGeometry x="23.440000000000047" y="688.55" width="80" height="30" as="geometry" />
        </mxCell>
        <mxCell id="KjTmBkhDE84WE-KOnru3-38" value="Spoke - PROD - VPC" style="text;html=1;align=center;verticalAlign=middle;resizable=0;points=[];autosize=1;strokeColor=none;fillColor=none;fontStyle=1" vertex="1" parent="1">
          <mxGeometry x="294.35999999999996" y="431" width="140" height="30" as="geometry" />
        </mxCell>
        <mxCell id="KjTmBkhDE84WE-KOnru3-39" value="VMS - App - Subnet" style="text;html=1;align=center;verticalAlign=middle;resizable=0;points=[];autosize=1;strokeColor=none;fillColor=none;fontStyle=1" vertex="1" parent="1">
          <mxGeometry x="16.110000000000007" y="461" width="130" height="30" as="geometry" />
        </mxCell>
        <mxCell id="KjTmBkhDE84WE-KOnru3-40" value="AWS Fargate&lt;br&gt;3 Container Groups" style="text;html=1;align=center;verticalAlign=middle;resizable=0;points=[];autosize=1;strokeColor=none;fillColor=none;fontSize=10;" vertex="1" parent="1">
          <mxGeometry x="-62.01999999999999" y="551.01" width="110" height="40" as="geometry" />
        </mxCell>
        <mxCell id="KjTmBkhDE84WE-KOnru3-41" style="edgeStyle=orthogonalEdgeStyle;rounded=0;orthogonalLoop=1;jettySize=auto;html=1;exitX=0.25;exitY=1;exitDx=0;exitDy=0;startArrow=classic;startFill=1;" edge="1" parent="1">
          <mxGeometry relative="1" as="geometry">
            <mxPoint x="67.93" y="600" as="sourcePoint" />
            <mxPoint x="68.21" y="650" as="targetPoint" />
          </mxGeometry>
        </mxCell>
        <mxCell id="KjTmBkhDE84WE-KOnru3-42" value="AWS CloudWatch" style="text;html=1;align=center;verticalAlign=middle;resizable=0;points=[];autosize=1;strokeColor=none;fillColor=none;fontSize=10;" vertex="1" parent="1">
          <mxGeometry x="108.91999999999997" y="768.26" width="100" height="30" as="geometry" />
        </mxCell>
        <mxCell id="KjTmBkhDE84WE-KOnru3-43" value="Backend/Utility Subnets" style="text;html=1;align=center;verticalAlign=middle;resizable=0;points=[];autosize=1;strokeColor=none;fillColor=none;fontStyle=1" vertex="1" parent="1">
          <mxGeometry x="162.35999999999999" y="650" width="160" height="30" as="geometry" />
        </mxCell>
        <mxCell id="KjTmBkhDE84WE-KOnru3-44" value="AWS Backups" style="text;html=1;align=center;verticalAlign=middle;resizable=0;points=[];autosize=1;strokeColor=none;fillColor=none;fontSize=10;" vertex="1" parent="1">
          <mxGeometry x="209.35999999999999" y="765.76" width="90" height="30" as="geometry" />
        </mxCell>
        <mxCell id="KjTmBkhDE84WE-KOnru3-45" value="2 AWS App Service&lt;br&gt;with Private Link" style="text;html=1;align=center;verticalAlign=middle;resizable=0;points=[];autosize=1;strokeColor=none;fillColor=none;fontSize=10;" vertex="1" parent="1">
          <mxGeometry x="103.91999999999999" y="551.01" width="110" height="40" as="geometry" />
        </mxCell>
        <mxCell id="KjTmBkhDE84WE-KOnru3-46" value="" style="shape=image;verticalLabelPosition=bottom;labelBackgroundColor=default;verticalAlign=top;aspect=fixed;imageAspect=0;image=https://www.nclouds.com/wp-content/uploads/2023/05/fargate-2.png;clipPath=inset(16% 33.33% 39.5% 35.67%);" vertex="1" parent="1">
          <mxGeometry x="-41.68" y="491" width="44.57" height="42.65" as="geometry" />
        </mxCell>
        <mxCell id="KjTmBkhDE84WE-KOnru3-47" value="" style="shape=image;verticalLabelPosition=bottom;labelBackgroundColor=default;verticalAlign=top;aspect=fixed;imageAspect=0;image=https://www.nclouds.com/wp-content/uploads/2023/05/fargate-2.png;clipPath=inset(16% 33.33% 39.5% 35.67%);" vertex="1" parent="1">
          <mxGeometry x="-31.68" y="501" width="44.57" height="42.65" as="geometry" />
        </mxCell>
        <mxCell id="KjTmBkhDE84WE-KOnru3-48" value="" style="shape=image;verticalLabelPosition=bottom;labelBackgroundColor=default;verticalAlign=top;aspect=fixed;imageAspect=0;image=https://www.nclouds.com/wp-content/uploads/2023/05/fargate-2.png;clipPath=inset(16% 33.33% 39.5% 35.67%);" vertex="1" parent="1">
          <mxGeometry x="-21.68" y="511" width="44.57" height="42.65" as="geometry" />
        </mxCell>
        <mxCell id="KjTmBkhDE84WE-KOnru3-49" value="" style="shape=image;verticalLabelPosition=bottom;labelBackgroundColor=default;verticalAlign=top;aspect=fixed;imageAspect=0;image=https://upload.wikimedia.org/wikipedia/commons/thumb/b/b9/AWS_Simple_Icons_Compute_Amazon_EC2_Instances.svg/1024px-AWS_Simple_Icons_Compute_Amazon_EC2_Instances.svg.png;" vertex="1" parent="1">
          <mxGeometry x="114.46" y="497.7" width="48.3" height="48.3" as="geometry" />
        </mxCell>
        <mxCell id="KjTmBkhDE84WE-KOnru3-51" value="" style="shape=image;verticalLabelPosition=bottom;labelBackgroundColor=default;verticalAlign=top;aspect=fixed;imageAspect=0;image=https://www.netreo.com/wp-content/uploads/amazon-backup-vault.png;" vertex="1" parent="1">
          <mxGeometry x="225.36" y="712" width="58" height="56.26" as="geometry" />
        </mxCell>
        <mxCell id="KjTmBkhDE84WE-KOnru3-52" value="" style="shape=image;verticalLabelPosition=bottom;labelBackgroundColor=default;verticalAlign=top;aspect=fixed;imageAspect=0;image=https://images.ctfassets.net/k49d63tr8kcn/6tCRdmAKjAcmIFB7c7uN4y/af7b623e011044ee70dc7aeb38ce9ad3/amazon_rds_with_post-1-.svg;" vertex="1" parent="1">
          <mxGeometry x="-73.12" y="718.56" width="51.44" height="51.44" as="geometry" />
        </mxCell>
        <mxCell id="KjTmBkhDE84WE-KOnru3-53" value="" style="shape=image;verticalLabelPosition=bottom;labelBackgroundColor=default;verticalAlign=top;aspect=fixed;imageAspect=0;image=data:image/png,iVBORw0KGgoAAAANSUhEUgAAAOEAAADhCAMAAAAJbSJIAAABLFBMVEX///8RWY0bdbwGSXb0eSD7sEAAPG4ARXMFR3OtvctMbY4RX5kAWI8AcsEAV5EDRnH/szUANmv4ehwAcsD9exUAQnIAOGz/sjgAQ3IAM2kNU4X5sD//tDIAcMNthp4AVJBziJvpdyYlW4jW3uXx9feInrPl6u8KTn4hVn8ZcLRFfa6/cEizbk64b0udr8B3kanEz9nG0do2YodXeZcVZqWvmXovebVPf6qCjJPidi39eQCrjmTueCFmYnWobFQaVH6zwc4AKWTVpGHgqFPdqFbFn22fk4Zig6O2m3bsrEuNj47So2OkloDpq06UkItNaYFqdXpRX3yUaGLFcUKcd3tedqCvd2tCdazYeEGEZmeaal18d5HeeDqJf3GRgm2+nXGpd22UaV90ZG9hYnQXyil0AAAK5UlEQVR4nO2deVfaShjGwShQDCmEQHApVBS31g2XirXotS61Lr3V9rrU3qX9/t/hTiJLZgszaJIZzjz/3HPKPUd+Pu82kzETiykpKSkpKSkpKSkpKSkpKSkpKQ2kVmv18ovZqL9FUJpeTueKhWQhMba3sj8T9bd5bk0vrxcAnfYoQJmYr60ODOXsi7KWS5Q0WMlCsZiurUX95Z6smf0VQNcxj0S5PB31l+xfa7V6kUrXVimR09ZlLD6grIwVe9G1rQSUhfK+RJSgrCRZ6ToqJIrzKzIUH1BWknhZYZPTSOq1NYEpZ1ZX5kHi9UXXpSwWxCw+M6CsjCUKqSfhteSk5YlYxQeUlQR34vWiLGqCTD6grJSKCWa6lPbyJaPRIC1z9YgnH1BWSjmexJsbj8eHNnReymjS0ikrPHQpFw9oCGhhQ0+xQgLKXGE95OLTKiscideiaxO6lKPj7JSg+CRCW3aBslLgKiseOi+ho43ROeaAdSjnAy8+oKwUc+x0KZQOJXQp9bmXKUbKVNAzwYs/uKaVcRyPQOgGrK6xQoK0HEsHR5hg/BZE8+iErbRktTIZOSGdzofwMS2Zik+UhH7eMRAyFp/oCHvTMRC2i48PZSSELOaxEzppuRFP0fIyAkJmOnZCl3J0XCNZGTIhFx0foRuwo3i3DI2QIzL7J3QpnbSMgJDcz4MgHHLScjx8wv74+iQcGhpNKUJFqAgVoSJUhIpQESpCRagI+yfM5zOu8oNJmM/fbG8efLz4eHh0fDLkSyklYWbr+CKbtUcc2XZ24qjswyghYX7rU4uuLTt7+jozOISZSxvmc5U9XKQwSke4dZDF+VzGz68GgTB/M0EwsIW4SXRRLsL84gSNz0H8RHJRKsL8og+fg3hOcFEmQn8HHU2+xruGRIT5RTQFbRstq/aWxIQG4mB24mzz+PzoFOqN9hEWp9IQGmmY72I7n8mD2fTVuyNv+5h8JyuhkYYczJ7nOxmXOfF8hJsoCSEKCHX3/NapTybKQWjUIcDJbdgobw2yL/MSEiKA2W00EjOX3Vw8yMhHqH+xH0UDBIjdX4Eto4f1erX+5c/Lo9NJGw/Rxzg978Rp9p2EhHEdyACdYevzARFwaOikE6ZZZK6Rg9CV61Vmi7ya3+p4aH+WmpCuTiLaxwNPeDmYhBJHKSgxhvtfw2/LMP+6W2nKUhHqxterN43d4eHdxvW370NUyMxRt1sswh8JTWhUm1OWaZrDQKZp7Qz/dUNh3OrONBPyzDRGdcly4bqydpaI3eJV10L7TBpC4wrlc63c+YYjZj53LcxuSzK16fFrC+dzfbxdQAFfe9bAEyi+oIR6tUEwsGXj1A0d0MY2TcUk1KtTVECAOEwFHLFRg8Uk9AcEgfqNBpg9xrJURMJegMPm2zwZ0D6UYr8UAwSt0DK9/9T1EAYkbZcKSIgCWuZ18+7u/s1up3mY5gIF8B2hWQpHiACa5lXVcBfA+o+G1fqnGzIgOpGKSahXd6F4vI0b7U/y+b92TKeSUgFleLqGOGgtGd3PwArie2Nn54EPUDBCFPCtB7D1hLQzezMCikXoC4isgFkBhSL0B4z3BygSYQ/AuA+gTQcUiBArMhXkf/ACllkdFIgQbRMdB41KRUcI2UNUIEJqm6j8PDv6UoEIEQcn6eehBCKkOagbh9kRe/JnxUP4isdBUQhpDgJAdwPGfl8x9McvnM+cw4D+DgpCSA1R42Nrh8me+Lv6KpNxns2c2jwOCkIYb1By8L3n2a59cXZ0doEcL+npoBiExhvKLFo5hXCw0zO9iowohPoviwyIEmJicFAIwviuF/CNZ5LxRilBLA6KQGg0LbKDjnyPIjIBCkAYpznoBHCdfpzUPmECjJ5Qv7OogM7W9yEZMXux2OvPEEQhNB46hdR8QAEBYuXvEZzRzm6y4YlAWN3pWGhWdYwQlJvqeyRUbfsf2rF1AQk9rcJs4hY+2hj/eTDSOjRkZ+3Dyy12PgEI7ztBatWJgG4oV/Q/f25++ufT5mV5oeffAYlF2J1nzAbZwvavwnD/yImPTgjC2w7htS+htH+71i2lJrovM3iESxTCdoGVlbAbpbdEQr3+Szd0mQmXOrV0l9QN9equNdX8EDcMQ1JCb7f4iiPq9V3TfX54+/bqx4/v3wnPB4Un/NDt+NhU6tmgciitnaaEHsbjnsEbNRHZgdv5l78bCkDYLTXD5hQ8mOrzCCDPsCYOoXcPw2x4EY36MzgoAGFc9+wkmsMfjBajbtzBpxOafTkoBOEVtBH18KtaMYxK9a4BnfqymrJ2Cycaod1SUDN3G41hCz62ZzUrsnZ8x8Tf6Bk9KDxbDko707gm3lOOIUKAMhPGDdpJSy9gv4Tx8AnnCIgPPogtwD4JNzwvTgztzZCE9ybqdBet/1rDXH+E3h8cIOF+0fuDSE+fjP9IZ54fO2T8CYSeLNS0UnCEsT3oTaKEOAUTzAPOaFpLnQVwX4QL3pd7arkAbxhazUEmkt7vqRu/GhCjae5cf4VOffFrzvtTC+vBAcZi6/AbywmEDuPvt1OWc5bUPVHauK8b3km8D8BRyMJEoC+en4VNJMWpy6hXf9/dN5v3d1+rBrKW4gfcgHIjsRwkYCy2DL9ol/4eWucsqXOiFPuAnxD6pSbngwWMxebhewOohFRxA8YhC3OBX3QxPaY9DZEXcANOwlrQgLFYDX7lNSUVn41wAXIwuRc8IBqnPqn4LIRwxAQfo46m4XrKG6d8gHAShhGjjpA45UTkAoQ7YbIeDmAsVof7Pl8q8gDC05qWCO0er1nYRL5U5AFEkvBFWIBgkYG0jGDuRhiag5KwcBIeYCy20n8qsgPCVSaphQmIjTYciMyAcJUJqVF0NQsvhjmqDSvgBgIY8MCNC01FZkRGQKSMhpuEj1rps6AyAsL3kgS/oiApXeoLkY0QDhAtF8mNljPJZD+ITIBwn9Byq1EA4gMqW0FlARyHAYshjaO40GrDhMgPmChHBYjP4CyIvQF1pIyGNm+TtI5e0/kMhDpSRrVob5StoxciPpkQGWW0YsQXA89o6I2WTyREAccC3OBm0yx2F/CTCDHA/agB8c23XohcgOFPoySt8iFy5WBkjRDWMheiDyDSJrREBOM2WcvocOOHSAeEV7wAMNCHTHyqcSBSAcdRBwN8EMov3EXe23LRYVsrCAXIg0jmWxAdkBCoKcqqnwyIXjca7TBKFp6LZEQSILInI6KDjmpY0yDWGwIg2gYFBST1RVIy4oBoGxSqTcBiQuxZYwQGBIt+LBfxetMrBbVihEv63lodQ1caWDL2iFAtJ8gsStM0tphCIxWOUAxwTIjVhJ9m99CNDSRSvRGKXbqdjGrfkEczdcLt3URCPEJLyZAfv/SpchEj9NjYiVANc7AwH+2mE7sIvb874NC6POgSAk5qNO0X8XrT3vSnlRjBuwSqWQ2rN+1sdA3EAlRLil9EEaXxZHzMRlBCsSlGnhrjVY3Q/J3eiK3l3RRMy1JjvForoPvhjuZSpAgVfI6haSZN6IwElQqR72v3rdoYbhimopQR2tY0saZCEVqUrYaiOiEWnI4S8xE/WnoGrfrYmBR9qcSmmTLNxsSefE2QrLU9UlGVtkcQVcthvbFYHxQDHzWbhofxQiHEw6Ihab/UDdVSbkXmHkhVO1STufRgBWhXM2XAmCzOS7AX07em02OlwUtAWPIO2UpKSkpKSkpKSkpKSkpKAut/PaCXII/4bycAAAAASUVORK5CYII=;" vertex="1" parent="1">
          <mxGeometry x="151.86" y="491" width="23.19" height="23.19" as="geometry" />
        </mxCell>
        <mxCell id="KjTmBkhDE84WE-KOnru3-54" value="" style="shape=image;verticalLabelPosition=bottom;labelBackgroundColor=default;verticalAlign=top;aspect=fixed;imageAspect=0;image=data:image/png,iVBORw0KGgoAAAANSUhEUgAAAOEAAADhCAMAAAAJbSJIAAABLFBMVEX///8RWY0bdbwGSXb0eSD7sEAAPG4ARXMFR3OtvctMbY4RX5kAWI8AcsEAV5EDRnH/szUANmv4ehwAcsD9exUAQnIAOGz/sjgAQ3IAM2kNU4X5sD//tDIAcMNthp4AVJBziJvpdyYlW4jW3uXx9feInrPl6u8KTn4hVn8ZcLRFfa6/cEizbk64b0udr8B3kanEz9nG0do2YodXeZcVZqWvmXovebVPf6qCjJPidi39eQCrjmTueCFmYnWobFQaVH6zwc4AKWTVpGHgqFPdqFbFn22fk4Zig6O2m3bsrEuNj47So2OkloDpq06UkItNaYFqdXpRX3yUaGLFcUKcd3tedqCvd2tCdazYeEGEZmeaal18d5HeeDqJf3GRgm2+nXGpd22UaV90ZG9hYnQXyil0AAAK5UlEQVR4nO2deVfaShjGwShQDCmEQHApVBS31g2XirXotS61Lr3V9rrU3qX9/t/hTiJLZgszaJIZzjz/3HPKPUd+Pu82kzETiykpKSkpKSkpKSkpKSkpKSkpKQ2kVmv18ovZqL9FUJpeTueKhWQhMba3sj8T9bd5bk0vrxcAnfYoQJmYr60ODOXsi7KWS5Q0WMlCsZiurUX95Z6smf0VQNcxj0S5PB31l+xfa7V6kUrXVimR09ZlLD6grIwVe9G1rQSUhfK+RJSgrCRZ6ToqJIrzKzIUH1BWknhZYZPTSOq1NYEpZ1ZX5kHi9UXXpSwWxCw+M6CsjCUKqSfhteSk5YlYxQeUlQR34vWiLGqCTD6grJSKCWa6lPbyJaPRIC1z9YgnH1BWSjmexJsbj8eHNnReymjS0ikrPHQpFw9oCGhhQ0+xQgLKXGE95OLTKiscideiaxO6lKPj7JSg+CRCW3aBslLgKiseOi+ho43ROeaAdSjnAy8+oKwUc+x0KZQOJXQp9bmXKUbKVNAzwYs/uKaVcRyPQOgGrK6xQoK0HEsHR5hg/BZE8+iErbRktTIZOSGdzofwMS2Zik+UhH7eMRAyFp/oCHvTMRC2i48PZSSELOaxEzppuRFP0fIyAkJmOnZCl3J0XCNZGTIhFx0foRuwo3i3DI2QIzL7J3QpnbSMgJDcz4MgHHLScjx8wv74+iQcGhpNKUJFqAgVoSJUhIpQESpCRagI+yfM5zOu8oNJmM/fbG8efLz4eHh0fDLkSyklYWbr+CKbtUcc2XZ24qjswyghYX7rU4uuLTt7+jozOISZSxvmc5U9XKQwSke4dZDF+VzGz68GgTB/M0EwsIW4SXRRLsL84gSNz0H8RHJRKsL8og+fg3hOcFEmQn8HHU2+xruGRIT5RTQFbRstq/aWxIQG4mB24mzz+PzoFOqN9hEWp9IQGmmY72I7n8mD2fTVuyNv+5h8JyuhkYYczJ7nOxmXOfF8hJsoCSEKCHX3/NapTybKQWjUIcDJbdgobw2yL/MSEiKA2W00EjOX3Vw8yMhHqH+xH0UDBIjdX4Eto4f1erX+5c/Lo9NJGw/Rxzg978Rp9p2EhHEdyACdYevzARFwaOikE6ZZZK6Rg9CV61Vmi7ya3+p4aH+WmpCuTiLaxwNPeDmYhBJHKSgxhvtfw2/LMP+6W2nKUhHqxterN43d4eHdxvW370NUyMxRt1sswh8JTWhUm1OWaZrDQKZp7Qz/dUNh3OrONBPyzDRGdcly4bqydpaI3eJV10L7TBpC4wrlc63c+YYjZj53LcxuSzK16fFrC+dzfbxdQAFfe9bAEyi+oIR6tUEwsGXj1A0d0MY2TcUk1KtTVECAOEwFHLFRg8Uk9AcEgfqNBpg9xrJURMJegMPm2zwZ0D6UYr8UAwSt0DK9/9T1EAYkbZcKSIgCWuZ18+7u/s1up3mY5gIF8B2hWQpHiACa5lXVcBfA+o+G1fqnGzIgOpGKSahXd6F4vI0b7U/y+b92TKeSUgFleLqGOGgtGd3PwArie2Nn54EPUDBCFPCtB7D1hLQzezMCikXoC4isgFkBhSL0B4z3BygSYQ/AuA+gTQcUiBArMhXkf/ACllkdFIgQbRMdB41KRUcI2UNUIEJqm6j8PDv6UoEIEQcn6eehBCKkOagbh9kRe/JnxUP4isdBUQhpDgJAdwPGfl8x9McvnM+cw4D+DgpCSA1R42Nrh8me+Lv6KpNxns2c2jwOCkIYb1By8L3n2a59cXZ0doEcL+npoBiExhvKLFo5hXCw0zO9iowohPoviwyIEmJicFAIwviuF/CNZ5LxRilBLA6KQGg0LbKDjnyPIjIBCkAYpznoBHCdfpzUPmECjJ5Qv7OogM7W9yEZMXux2OvPEEQhNB46hdR8QAEBYuXvEZzRzm6y4YlAWN3pWGhWdYwQlJvqeyRUbfsf2rF1AQk9rcJs4hY+2hj/eTDSOjRkZ+3Dyy12PgEI7ztBatWJgG4oV/Q/f25++ufT5mV5oeffAYlF2J1nzAbZwvavwnD/yImPTgjC2w7htS+htH+71i2lJrovM3iESxTCdoGVlbAbpbdEQr3+Szd0mQmXOrV0l9QN9equNdX8EDcMQ1JCb7f4iiPq9V3TfX54+/bqx4/v3wnPB4Un/NDt+NhU6tmgciitnaaEHsbjnsEbNRHZgdv5l78bCkDYLTXD5hQ8mOrzCCDPsCYOoXcPw2x4EY36MzgoAGFc9+wkmsMfjBajbtzBpxOafTkoBOEVtBH18KtaMYxK9a4BnfqymrJ2Cycaod1SUDN3G41hCz62ZzUrsnZ8x8Tf6Bk9KDxbDko707gm3lOOIUKAMhPGDdpJSy9gv4Tx8AnnCIgPPogtwD4JNzwvTgztzZCE9ybqdBet/1rDXH+E3h8cIOF+0fuDSE+fjP9IZ54fO2T8CYSeLNS0UnCEsT3oTaKEOAUTzAPOaFpLnQVwX4QL3pd7arkAbxhazUEmkt7vqRu/GhCjae5cf4VOffFrzvtTC+vBAcZi6/AbywmEDuPvt1OWc5bUPVHauK8b3km8D8BRyMJEoC+en4VNJMWpy6hXf9/dN5v3d1+rBrKW4gfcgHIjsRwkYCy2DL9ol/4eWucsqXOiFPuAnxD6pSbngwWMxebhewOohFRxA8YhC3OBX3QxPaY9DZEXcANOwlrQgLFYDX7lNSUVn41wAXIwuRc8IBqnPqn4LIRwxAQfo46m4XrKG6d8gHAShhGjjpA45UTkAoQ7YbIeDmAsVof7Pl8q8gDC05qWCO0er1nYRL5U5AFEkvBFWIBgkYG0jGDuRhiag5KwcBIeYCy20n8qsgPCVSaphQmIjTYciMyAcJUJqVF0NQsvhjmqDSvgBgIY8MCNC01FZkRGQKSMhpuEj1rps6AyAsL3kgS/oiApXeoLkY0QDhAtF8mNljPJZD+ITIBwn9Byq1EA4gMqW0FlARyHAYshjaO40GrDhMgPmChHBYjP4CyIvQF1pIyGNm+TtI5e0/kMhDpSRrVob5StoxciPpkQGWW0YsQXA89o6I2WTyREAccC3OBm0yx2F/CTCDHA/agB8c23XohcgOFPoySt8iFy5WBkjRDWMheiDyDSJrREBOM2WcvocOOHSAeEV7wAMNCHTHyqcSBSAcdRBwN8EMov3EXe23LRYVsrCAXIg0jmWxAdkBCoKcqqnwyIXjca7TBKFp6LZEQSILInI6KDjmpY0yDWGwIg2gYFBST1RVIy4oBoGxSqTcBiQuxZYwQGBIt+LBfxetMrBbVihEv63lodQ1caWDL2iFAtJ8gsStM0tphCIxWOUAxwTIjVhJ9m99CNDSRSvRGKXbqdjGrfkEczdcLt3URCPEJLyZAfv/SpchEj9NjYiVANc7AwH+2mE7sIvb874NC6POgSAk5qNO0X8XrT3vSnlRjBuwSqWQ2rN+1sdA3EAlRLil9EEaXxZHzMRlBCsSlGnhrjVY3Q/J3eiK3l3RRMy1JjvForoPvhjuZSpAgVfI6haSZN6IwElQqR72v3rdoYbhimopQR2tY0saZCEVqUrYaiOiEWnI4S8xE/WnoGrfrYmBR9qcSmmTLNxsSefE2QrLU9UlGVtkcQVcthvbFYHxQDHzWbhofxQiHEw6Ihab/UDdVSbkXmHkhVO1STufRgBWhXM2XAmCzOS7AX07em02OlwUtAWPIO2UpKSkpKSkpKSkpKSkpKAut/PaCXII/4bycAAAAASUVORK5CYII=;" vertex="1" parent="1">
          <mxGeometry x="-42.07" y="712" width="23.19" height="23.19" as="geometry" />
        </mxCell>
        <mxCell id="KjTmBkhDE84WE-KOnru3-55" value="" style="shape=image;verticalLabelPosition=bottom;labelBackgroundColor=default;verticalAlign=top;aspect=fixed;imageAspect=0;image=https://cdn.iconscout.com/icon/free/png-256/free-amazon-s3-2968702-2464706.png;" vertex="1" parent="1">
          <mxGeometry x="27.439999999999998" y="705.13" width="70" height="70" as="geometry" />
        </mxCell>
        <mxCell id="KjTmBkhDE84WE-KOnru3-56" value="" style="shape=image;verticalLabelPosition=bottom;labelBackgroundColor=default;verticalAlign=top;aspect=fixed;imageAspect=0;image=data:image/png,iVBORw0KGgoAAAANSUhEUgAAAOEAAADhCAMAAAAJbSJIAAABLFBMVEX///8RWY0bdbwGSXb0eSD7sEAAPG4ARXMFR3OtvctMbY4RX5kAWI8AcsEAV5EDRnH/szUANmv4ehwAcsD9exUAQnIAOGz/sjgAQ3IAM2kNU4X5sD//tDIAcMNthp4AVJBziJvpdyYlW4jW3uXx9feInrPl6u8KTn4hVn8ZcLRFfa6/cEizbk64b0udr8B3kanEz9nG0do2YodXeZcVZqWvmXovebVPf6qCjJPidi39eQCrjmTueCFmYnWobFQaVH6zwc4AKWTVpGHgqFPdqFbFn22fk4Zig6O2m3bsrEuNj47So2OkloDpq06UkItNaYFqdXpRX3yUaGLFcUKcd3tedqCvd2tCdazYeEGEZmeaal18d5HeeDqJf3GRgm2+nXGpd22UaV90ZG9hYnQXyil0AAAK5UlEQVR4nO2deVfaShjGwShQDCmEQHApVBS31g2XirXotS61Lr3V9rrU3qX9/t/hTiJLZgszaJIZzjz/3HPKPUd+Pu82kzETiykpKSkpKSkpKSkpKSkpKSkpKQ2kVmv18ovZqL9FUJpeTueKhWQhMba3sj8T9bd5bk0vrxcAnfYoQJmYr60ODOXsi7KWS5Q0WMlCsZiurUX95Z6smf0VQNcxj0S5PB31l+xfa7V6kUrXVimR09ZlLD6grIwVe9G1rQSUhfK+RJSgrCRZ6ToqJIrzKzIUH1BWknhZYZPTSOq1NYEpZ1ZX5kHi9UXXpSwWxCw+M6CsjCUKqSfhteSk5YlYxQeUlQR34vWiLGqCTD6grJSKCWa6lPbyJaPRIC1z9YgnH1BWSjmexJsbj8eHNnReymjS0ikrPHQpFw9oCGhhQ0+xQgLKXGE95OLTKiscideiaxO6lKPj7JSg+CRCW3aBslLgKiseOi+ho43ROeaAdSjnAy8+oKwUc+x0KZQOJXQp9bmXKUbKVNAzwYs/uKaVcRyPQOgGrK6xQoK0HEsHR5hg/BZE8+iErbRktTIZOSGdzofwMS2Zik+UhH7eMRAyFp/oCHvTMRC2i48PZSSELOaxEzppuRFP0fIyAkJmOnZCl3J0XCNZGTIhFx0foRuwo3i3DI2QIzL7J3QpnbSMgJDcz4MgHHLScjx8wv74+iQcGhpNKUJFqAgVoSJUhIpQESpCRagI+yfM5zOu8oNJmM/fbG8efLz4eHh0fDLkSyklYWbr+CKbtUcc2XZ24qjswyghYX7rU4uuLTt7+jozOISZSxvmc5U9XKQwSke4dZDF+VzGz68GgTB/M0EwsIW4SXRRLsL84gSNz0H8RHJRKsL8og+fg3hOcFEmQn8HHU2+xruGRIT5RTQFbRstq/aWxIQG4mB24mzz+PzoFOqN9hEWp9IQGmmY72I7n8mD2fTVuyNv+5h8JyuhkYYczJ7nOxmXOfF8hJsoCSEKCHX3/NapTybKQWjUIcDJbdgobw2yL/MSEiKA2W00EjOX3Vw8yMhHqH+xH0UDBIjdX4Eto4f1erX+5c/Lo9NJGw/Rxzg978Rp9p2EhHEdyACdYevzARFwaOikE6ZZZK6Rg9CV61Vmi7ya3+p4aH+WmpCuTiLaxwNPeDmYhBJHKSgxhvtfw2/LMP+6W2nKUhHqxterN43d4eHdxvW370NUyMxRt1sswh8JTWhUm1OWaZrDQKZp7Qz/dUNh3OrONBPyzDRGdcly4bqydpaI3eJV10L7TBpC4wrlc63c+YYjZj53LcxuSzK16fFrC+dzfbxdQAFfe9bAEyi+oIR6tUEwsGXj1A0d0MY2TcUk1KtTVECAOEwFHLFRg8Uk9AcEgfqNBpg9xrJURMJegMPm2zwZ0D6UYr8UAwSt0DK9/9T1EAYkbZcKSIgCWuZ18+7u/s1up3mY5gIF8B2hWQpHiACa5lXVcBfA+o+G1fqnGzIgOpGKSahXd6F4vI0b7U/y+b92TKeSUgFleLqGOGgtGd3PwArie2Nn54EPUDBCFPCtB7D1hLQzezMCikXoC4isgFkBhSL0B4z3BygSYQ/AuA+gTQcUiBArMhXkf/ACllkdFIgQbRMdB41KRUcI2UNUIEJqm6j8PDv6UoEIEQcn6eehBCKkOagbh9kRe/JnxUP4isdBUQhpDgJAdwPGfl8x9McvnM+cw4D+DgpCSA1R42Nrh8me+Lv6KpNxns2c2jwOCkIYb1By8L3n2a59cXZ0doEcL+npoBiExhvKLFo5hXCw0zO9iowohPoviwyIEmJicFAIwviuF/CNZ5LxRilBLA6KQGg0LbKDjnyPIjIBCkAYpznoBHCdfpzUPmECjJ5Qv7OogM7W9yEZMXux2OvPEEQhNB46hdR8QAEBYuXvEZzRzm6y4YlAWN3pWGhWdYwQlJvqeyRUbfsf2rF1AQk9rcJs4hY+2hj/eTDSOjRkZ+3Dyy12PgEI7ztBatWJgG4oV/Q/f25++ufT5mV5oeffAYlF2J1nzAbZwvavwnD/yImPTgjC2w7htS+htH+71i2lJrovM3iESxTCdoGVlbAbpbdEQr3+Szd0mQmXOrV0l9QN9equNdX8EDcMQ1JCb7f4iiPq9V3TfX54+/bqx4/v3wnPB4Un/NDt+NhU6tmgciitnaaEHsbjnsEbNRHZgdv5l78bCkDYLTXD5hQ8mOrzCCDPsCYOoXcPw2x4EY36MzgoAGFc9+wkmsMfjBajbtzBpxOafTkoBOEVtBH18KtaMYxK9a4BnfqymrJ2Cycaod1SUDN3G41hCz62ZzUrsnZ8x8Tf6Bk9KDxbDko707gm3lOOIUKAMhPGDdpJSy9gv4Tx8AnnCIgPPogtwD4JNzwvTgztzZCE9ybqdBet/1rDXH+E3h8cIOF+0fuDSE+fjP9IZ54fO2T8CYSeLNS0UnCEsT3oTaKEOAUTzAPOaFpLnQVwX4QL3pd7arkAbxhazUEmkt7vqRu/GhCjae5cf4VOffFrzvtTC+vBAcZi6/AbywmEDuPvt1OWc5bUPVHauK8b3km8D8BRyMJEoC+en4VNJMWpy6hXf9/dN5v3d1+rBrKW4gfcgHIjsRwkYCy2DL9ol/4eWucsqXOiFPuAnxD6pSbngwWMxebhewOohFRxA8YhC3OBX3QxPaY9DZEXcANOwlrQgLFYDX7lNSUVn41wAXIwuRc8IBqnPqn4LIRwxAQfo46m4XrKG6d8gHAShhGjjpA45UTkAoQ7YbIeDmAsVof7Pl8q8gDC05qWCO0er1nYRL5U5AFEkvBFWIBgkYG0jGDuRhiag5KwcBIeYCy20n8qsgPCVSaphQmIjTYciMyAcJUJqVF0NQsvhjmqDSvgBgIY8MCNC01FZkRGQKSMhpuEj1rps6AyAsL3kgS/oiApXeoLkY0QDhAtF8mNljPJZD+ITIBwn9Byq1EA4gMqW0FlARyHAYshjaO40GrDhMgPmChHBYjP4CyIvQF1pIyGNm+TtI5e0/kMhDpSRrVob5StoxciPpkQGWW0YsQXA89o6I2WTyREAccC3OBm0yx2F/CTCDHA/agB8c23XohcgOFPoySt8iFy5WBkjRDWMheiDyDSJrREBOM2WcvocOOHSAeEV7wAMNCHTHyqcSBSAcdRBwN8EMov3EXe23LRYVsrCAXIg0jmWxAdkBCoKcqqnwyIXjca7TBKFp6LZEQSILInI6KDjmpY0yDWGwIg2gYFBST1RVIy4oBoGxSqTcBiQuxZYwQGBIt+LBfxetMrBbVihEv63lodQ1caWDL2iFAtJ8gsStM0tphCIxWOUAxwTIjVhJ9m99CNDSRSvRGKXbqdjGrfkEczdcLt3URCPEJLyZAfv/SpchEj9NjYiVANc7AwH+2mE7sIvb874NC6POgSAk5qNO0X8XrT3vSnlRjBuwSqWQ2rN+1sdA3EAlRLil9EEaXxZHzMRlBCsSlGnhrjVY3Q/J3eiK3l3RRMy1JjvForoPvhjuZSpAgVfI6haSZN6IwElQqR72v3rdoYbhimopQR2tY0saZCEVqUrYaiOiEWnI4S8xE/WnoGrfrYmBR9qcSmmTLNxsSefE2QrLU9UlGVtkcQVcthvbFYHxQDHzWbhofxQiHEw6Ihab/UDdVSbkXmHkhVO1STufRgBWhXM2XAmCzOS7AX07em02OlwUtAWPIO2UpKSkpKSkpKSkpKSkpKAut/PaCXII/4bycAAAAASUVORK5CYII=;" vertex="1" parent="1">
          <mxGeometry x="79.24999999999999" y="715" width="23.19" height="23.19" as="geometry" />
        </mxCell>
        <mxCell id="KjTmBkhDE84WE-KOnru3-12" value="" style="shape=image;verticalLabelPosition=bottom;labelBackgroundColor=default;verticalAlign=top;aspect=fixed;imageAspect=0;image=https://cdn2.iconfinder.com/data/icons/amazon-aws-stencils/100/Non-Service_Specific_copy_Virtual_Private_CLoud_-512.png;" vertex="1" parent="1">
          <mxGeometry x="429.9" y="406.11" width="64.89" height="64.89" as="geometry" />
        </mxCell>
        <mxCell id="ZHnCmB_-eCUDnraLg0bQ-60" value="VPC Peering" style="text;html=1;align=center;verticalAlign=middle;resizable=0;points=[];autosize=1;strokeColor=none;fillColor=none;" parent="1" vertex="1">
          <mxGeometry x="468" y="472.38" width="90" height="30" as="geometry" />
        </mxCell>
        <mxCell id="ZHnCmB_-eCUDnraLg0bQ-54" style="edgeStyle=orthogonalEdgeStyle;rounded=0;orthogonalLoop=1;jettySize=auto;html=1;exitX=0;exitY=0.5;exitDx=0;exitDy=0;entryX=1;entryY=0.25;entryDx=0;entryDy=0;endArrow=classic;endFill=1;" parent="1" edge="1">
          <mxGeometry relative="1" as="geometry">
            <mxPoint x="550" y="286" as="sourcePoint" />
            <mxPoint x="269" y="506.75" as="targetPoint" />
            <Array as="points">
              <mxPoint x="530" y="287" />
              <mxPoint x="530" y="507" />
            </Array>
          </mxGeometry>
        </mxCell>
        <mxCell id="ZHnCmB_-eCUDnraLg0bQ-58" style="edgeStyle=orthogonalEdgeStyle;rounded=0;orthogonalLoop=1;jettySize=auto;html=1;exitX=0;exitY=0.5;exitDx=0;exitDy=0;startArrow=classic;startFill=1;endArrow=classic;endFill=1;" parent="1" edge="1">
          <mxGeometry relative="1" as="geometry">
            <mxPoint x="549" y="469.33" as="sourcePoint" />
            <mxPoint x="469" y="469.42" as="targetPoint" />
            <Array as="points">
              <mxPoint x="489" y="469.33" />
              <mxPoint x="489" y="469.33" />
            </Array>
          </mxGeometry>
        </mxCell>
        <mxCell id="KjTmBkhDE84WE-KOnru3-57" value="" style="shape=image;verticalLabelPosition=bottom;labelBackgroundColor=default;verticalAlign=top;aspect=fixed;imageAspect=0;image=data:image/png,iVBORw0KGgoAAAANSUhEUgAAAOEAAADhCAMAAAAJbSJIAAAA3lBMVEX1hTb///+dUCX1gzD1gCj3nGT0fSL6xKT1hDP5hzeYTST3mV383Mv1fyf1fiP1gS31iTz0eRL95tr0exv5u5mXQACWPgCcTSD3nmb+9e/4qXn5uJL71sHsgDT97uX2jUX6zLKZRhH2lli0XimsWSjGaS33oWz4rYH96t72kEz707zadTHr3df/+vb84NH6waD4sYjcxrz07enTtqrNbS6vdVnheTLGn43n19Dodh/SaBa6inTWu6+kVCakXTigVi2rbU7s0cT0cgDGXxCmSwO9k4CzWR3MqpumY0C1gGcQ1jZUAAASCElEQVR4nO2de1viOBvGe2BqQWjFUhAEOaggSFEcT/s6jrOzO+v4/b/Qm/SYtGmTJmn3mr3m/stLkebHk9x5ckRR/+tS/u0CVK7fhL++fhP++qqNcHh2dtwebzab8bi9Oz47G9b14KoJh7tZ7/Zk2rAMwzEMyxf4Ef6sr5e3B+Njr+ISVEh4tjn9dOQYnYatmwpBpqnbHcuxpsve+Ky6YlRD6O16C8exGmS0NKnesJzu+mZXTTQrIDy+WTSMRh5b7u/B/xzeHMsvjmRCbzyynIZeELCjgrDqDaexaksOpUxCb7NsGHZxjVS83CgGso3GciMTUh7hbmRZBcEL5IzVsUN7kW5Zo520ckki9A6OKNELyv4JvPYT9XOAkTw6kNRjSiG8WlkdFtdUurBXOOuyvNTsOCMpviOBcLxwGMIH1Tn1/+G0w/Zy21mPxYsnTDibGgy1LgiLGf6PyRRwIN2YbkQLKEg4My3W0vo2E4huNsmnYiiCjEKE46nBzqfoh/E/HrKG3WecCtVVAcLjhVOCD4QwST7P2IMIGZ21gOdwE3ojp0QglNhmArGaTSjdGXH3HbyEsw6jf0aKbSYQs9mEsp2DWgnPFka5AiI2E6iE2YSyplf1EfZKVlAlzGZQsWQ2uEynVxPh1dQqWzjMZgKVM5tA1pojjOUJD8oHMGUzgUqajS+eMJYl9E5Kt0BYMtJjKMMosqxFWVMtSbjTS1poIIfUZ5c3Gyi90a6S8KbL87kr+gnx3cqbDZTZLVdTSxEueWqoQrCZQDxmA2UsKyIcTht8JSLYTCAes4FqTEs0RnbCY5urUsHJp/ync1V6UO1t9kSVmbBdLs1GRLSZQHxmo8Bug3m8wUo4Y5p6ICmTzaAqM4zC1Z3JJbzh/bBzbSYQr9nA972RSdjjL0in2Nt7nGYDEfMMjIPwlB+QmM2gKjuMQmQwIbIQCgAW2UwgbrNRGKPIQCgCmJPNoDrhNhu2KNIJBUyGYjOBBMyGyW6ohDORAlBsJpCA2QBEaqdBI2yLAFJtJiwDv9kARNpQg1KGKxFA+tMDiZgNvSEUE9IW+4rFYDOBRMwGLkkKEC64xruRHNYRgJDZKPaCn3Al4gFKgzGtAupxjssCdVa8hEI2CnSMKDtJdoX+WaQxUAy1gPCKezgRykjUzdakRRf5u+CTugWzjPmEYi6TEmEIxTdLQ1bBILuAcCnkMilVTKg0RuUJRRshrqoJFSd3HTWPcChkoxlVTqhYeV1THqHk51dPiKwwMxHORN0t/fzKCRUjp8sgE0quo7UQmg1y9kYmHMn0UagaCBWb7KdEwp1UH4Wqg1BxiJvhiIRTiX19oFoIyf0+ifCAY42XoloIFYu0m4FA6OXu7+VXPYSmTjAbAuGp0FCGrHoIlQZh7i1LOBQdUpBUE6HiZIOYJbyV3VNA1UVo39IJh5KzmUB1ESpGJj3NEFYSwvoIG5kgpgk96Z29r9oIsy0xTSg2J5Sr+ggz819pQlt+XwhVH6GpFxPO5KczvuojVKzUKCpFuK4mhHUSmusiwuNqfKZWQsXBd6LghPK7CtOGhysNJzvHUBmhjU+B44SSjdS2nOnqZtM+Pt5lh26VESoW1mFghBuZPmNajdW4YG2mQkLMa5SKHmoa01nxqld1hHijRwmH8kJo0E8sVUeIJ6coobTOUE/3STUTdtDHo4RCS7HoA9YsS6MVEmKLzwihJ2no62THaDUTKl3EAhBCSU6Kb3E5m40WytH0aPrpdIw7T5WEFuICCOFKSnePrsd6B0dOxzZ96bbVPUTt57SiFBgK7fQRwqJz5MwykAj2Oqmzs/iByWU1AzUodOY0IRTbEBEKWalsNwiLH6azSLa/rKurp84VgXAmYTXGnCaVMGfXtJ5UY9D/Bmmr1ZE9LEX6i4RQxmpM8tEt81tZN67Im+/m6GC8240PVkesp6XZhKzSJIRMt3QUK5mQPSmqEInbIvn41W1DIiMy0o8Jh2zN0C5wQNOO3mxV7JNd4qK7t2IpgsX2OST7sWLCMYt5685qmL8w1YkWRqi7HHJ2242pB8PN6ZDtdG7SI8aEDJNspnN4VdSpdMIunZ7B6+ssnl9VaYtCsBu4OmQ4+pFMucWES9onYxprfzNlLmE8o86wEydv0f2K8uEEHV17TT0ln6SmMSFtVbSjh4XKJYzmR1juvUDn/Dw0T6fsNY268plN6duSfisi9IqXK2wr3s+cRxjnEUzZXzS+2o3srtM9SaynuAIkyUqPYjnx3HdEeFxECA0mLkIeYZQLekxmF2yQHh4G3aBurCPvOSv8qJF0bLgqtJx4xi0iLLBS0zlBt/7lEUZpRJtt8crYwCF3XEY9ThYKDQFbqr86KbCc2Ewjwps8K40MhkpohB/aKVuHZa69T+hnYTJ81pnNCAWWE5tp9L55M6WxwdAJw4rMehzNTF2Y1QmL5H3v5L9DZrvFTM+xnNjZI0LyeNTuZHcy5xE64d95h31xEI8PDq3cGpXdUHJDvr8innCL3pZUbr27Iky4kAn1bpTrcs+FIInO8IY09CITAsvpEsITvzIizL6h6SyJuZVtEOQcxq/lJjSwefEbi/Qcw84WCPjvkmA5nRRhum4Bg8m5UKxNEvJaSYTqkPignDMqu6zlRHP7IWF6f0KH/+4iWYQltVFS1TByvpAQ72cbFvtRCYmEgpeX3eBZjnGGEaILh7pzy3+r346xOyTIXCxXNzMBTO8WtZwohQgJd3EM9RyDYcIb0e5NLEbU7UbHsUclL75ABCwnZowqfYow32DoGi7lzLXYzoI/kInlGG2MMEwmrSP+y9HG8uaSdMZj2kRtjoJ+wcIJ/WRQ575tSoUX88ji84tXdE0BvSiwqkapN0JoFp9yK9ZG8o7Ghkhh1IVJJFTsT3y3aamiZ01J6uSf86EW5hNsLynCoB2C5JLz4rcKJujZ7/bANRwFfUbKaSIvtQ2uG8M2FWzZTF1hx6rTqL8ieylQw2a9NARRJVupWJbK05rZ8bgr1R/+mWTepjUt2+VKWbbKKL19i672FJlStnIJo5nfEpKxbEUQw4UMqFIzxdafGOEeHz2VvGtSzupxRlaZ9CMz219MiE2Q0sV/U1Ch7BKZTXb61NrjhNl61shp6VY31vdNLYTH35NHWsQyzQgTO0aK8A/CEwyi5SDzNFE1krURJ6VoORKZrSYebWpPSZ3VHynC/zUJLyJaDkIYTQLzjwkLFX2A7ULCnKWo5h/PGOEzkZBoOQhhVI3kn+bzFa1yIladIcxdTmz+Dyfc/kUmhKO1lOUghHqUHss/zqcga/HIDoM0YS93yNb8a4sR3uUSgrqIZznofGl0gHpXxVmpeKEa2WGAExatsTX/usMJ/84nhHtFEctBCeN17VP5iWm82D9G3hslbBfeJt78Gyf03MKnoZaDEiYLnSPZiMmdegukoSWE1LVuF58vVeeT4gcmloPN6ienNk/5rjbNe1wCiK0KR4T0/QqTuYoTvj0WVFNfdrfnZQgVK84d26a07NRMFkxVD9vnExB6vS6tf2o+vqUIH+5phNFKG06oJ7MNXs+yJGw7Mm0DnQ/DV719QuoiPlDz/iFF+OMfOmFgOam1J2y2YbPUHaPTafCq0zGc6QrNpFIWBgiLDSYm/OdHivB9zkDor3gfpX5l4VuCz9qzA37NUt8UlLkO76hoZRslnL+nCPc0q4mUbeAW/5wRTbfZZIkxBZ7M9ynCbf+aKYgkNabVfKnY8JB7G3Hzur9NEXr9S25CRTcEppJzNSv6Ziwa4WU/vZ9GfXvlJxRab8zRmOf2/oTwNeosEsKHAWNDJMuU9wVNQN6s1Pe7ZDUZRJ1FQvg+vxd5S7h7pLvutcUph+3eosv29VH5uo6tNCHcz89FqmkIaTnmdH2Y1SJ7Ld5qQXrd+sgwBNpfqOZ5bKUJ4V2/Jfq+gUxTz8omnCG1Ca/TBa4VRtXq32UI1XmLv7+gqs5TsrCvaM3VLOHHQKC/oKlmwvPBC4Hw81yr7JE1Eyra/DOBcOtWWE1rJQSV1N0SCNU3TdxN81Qv4fngTSURvgwkuSlB9dbSFtIMUcK922IYBvOpTsLmfcvdEwm9viaUmxapVsJXrU8+QwpS0xZ1toZTNRI2H1tJUpoi/DKvzGvqJDzX5l9yCO9crSU0wMhXjYSTlubeIc/B7lQA1bSivKY+wuYlXklxwi8giJU8ts4YghDu0edghB4grCaItRGCEGou9hz89pYfc62a5LS+GGra/AV7Dk64rSqIdRH6Idxiz0ndE/VzUE1LrC2GLW3wE39OivBLRUGsidAP4Rf8Oen72gZaJX1iTYSgLxwMUs9JE74Dr6kgsamHEKQzWjLJlkMIOgytguy0FkKQkWqaS7s30e8w5A8x6iF8BSH8kX5OhvAOBlG62dRBCG0GT0nJhH4QpZtNHYTAZgghJBCCgbCmXUgOYg2EzQtQ7j7LPcLqEwyi5PmM6gmb9zCET1kc0n3egFB2Pa2eENZRbcB2n7f62ZVeTysn9Ouo+5lAQyJUvw5k+2nVhL6PorOkFMJnaDatR4klqJoQ9vWa+8xMqL7Apig8UrSTjTJW9v7SQyv5s/AOXFjc1LiwmDAwG8GmeHTTS5TdM36A/PUmvUmnnPxGqM3LfEcJHEUJN0WL/azmTuh2Or8RZkZNFEL1YQARhRajGL/fEUpo5dfvCTV8go2BEKanoqMMpu/ohBL6nk5/REFKSCmE6t5H1CYiiIzHeoSOTTUnfjnxGUQmQvXD99NXgYezfoml2HGNV99lPnLfvaCtvA2EDZXplKTY15D6gOS+nkq47WuiiEXf2pcUQcBmmhd+I+xvC96+4NGfA7cRmbZhMBsRm2meB4CkfJSFMExthBCpZlN88xUTIGHYy0oIJ4gFEalmI5CehoDpKeBShN5AGJFiNgI2E7bBgSbyfcCh2wC74S4HxWwErvYNAPO7ejbCYCDlI/KGsdBsTnltphkB9olDphKE6pcQ8ZU7u+nmmw3LFYtkwMlrCJiTb5cgVN8DRE3jzVELzIY3m2k+hmXqp+fweQjVpyBD5R9p5JoNr800r4MAai5hbo2DUP0RIXKOF3OHUZzZTDAeZARkIkwQOS21Qz52zmczscdobmFPX4pQfQrbYouzMRIzG75BU9wEtT5LBFkJE7vhq6mEqTbOU/xxDWUxmTKEUacBaypPt0EwGx6baU4uYkBqN1GSUN33BxEjx5oGwWw45maCGRk/VSPPjQoRqs/zGPG8fBgzZlPeZpAADgYFA0JuQvXu61xLwliWMWU2pW2mmQRQm3+l5KKchKr64caIr2VNNWU2ZW2m+fgaA7r5kzKihMBSBzHjeclcHDObkjbTVM5jPtZego8QaYxaq3VZihEzm1LZTFO5b8WAgzmzx3ARqnff4poK+v9SzRExmzI2AxqglgTQ/VaiCXIRgprqDhDG6xJxjIdRJQZNON/AZezmhQjVbeKp0HLumRljs2GemwH1MzEY4KFv7J2ECCFMUwcIY+tywlhZQ7NhtZnm5BKJHwhgOYsRIVS3P5PWCBnPH5kYw2v0mC5eaDYn5y2ET3N/cgSQmxCedEOqalhZGe6dgGbD8M3m4K3uLzC+OXEXQpWEqveCVtUokDRIkNlQsxnwJtd4+EAFfeG+2pibEFTVby7GCAJ5SYPUDynZDPj/63MNw9MG/W98FVSUEIw3vqYZQSSvJ0WUjVF+HQX/N4HRS/G5P3PXBisnBIxvKUZIeXH5qORS5kQQvv7x8iJFB/k0IT5hQkIcg1BeXF5PWLzHZ2sqk2tIl8YDfF8F+SQQAsafWUafUgOYfjQBQga2GWryeH95oRHogH/2vwnzSSEE+fiHOydA+piA8/zy/vr6cTJJNgOCnx+v7y8vz19bLSIczLDdFwF/SSSFECTk79kGiYNiJJlfZMLnDt7Lptg5kkQI9PziFkCW0cCd/yg5RCqQPEKQBOw/5sKQAO9DQutLJJNQhZAgkuQ2yUI3d+cve/4vZiBKMiHU9v1hXp4S0j28y6ucsSoghHp+/3D7AJOFcwDg+m4ldFAVEULd7Z8evrqg0gJQEin47XwO/v714WkvyTdJqpDQl7fdf356+fYGUXDN3769PH3ebyU3u4yqJozl3d1tn5/3UM/P27u7qsFi1Ub4r+k34a+v34S/vv77hP8Hp+iDD993eQEAAAAASUVORK5CYII=;" vertex="1" parent="1">
          <mxGeometry x="503.5" y="440" width="21" height="21" as="geometry" />
        </mxCell>
        <mxCell id="KjTmBkhDE84WE-KOnru3-58" value="" style="shape=image;verticalLabelPosition=bottom;labelBackgroundColor=default;verticalAlign=top;aspect=fixed;imageAspect=0;image=data:image/png,iVBORw0KGgoAAAANSUhEUgAAAOEAAADhCAMAAAAJbSJIAAAA3lBMVEX1hTb///+dUCX1gzD1gCj3nGT0fSL6xKT1hDP5hzeYTST3mV383Mv1fyf1fiP1gS31iTz0eRL95tr0exv5u5mXQACWPgCcTSD3nmb+9e/4qXn5uJL71sHsgDT97uX2jUX6zLKZRhH2lli0XimsWSjGaS33oWz4rYH96t72kEz707zadTHr3df/+vb84NH6waD4sYjcxrz07enTtqrNbS6vdVnheTLGn43n19Dodh/SaBa6inTWu6+kVCakXTigVi2rbU7s0cT0cgDGXxCmSwO9k4CzWR3MqpumY0C1gGcQ1jZUAAASCElEQVR4nO2de1viOBvGe2BqQWjFUhAEOaggSFEcT/s6jrOzO+v4/b/Qm/SYtGmTJmn3mr3m/stLkebHk9x5ckRR/+tS/u0CVK7fhL++fhP++qqNcHh2dtwebzab8bi9Oz47G9b14KoJh7tZ7/Zk2rAMwzEMyxf4Ef6sr5e3B+Njr+ISVEh4tjn9dOQYnYatmwpBpqnbHcuxpsve+Ky6YlRD6O16C8exGmS0NKnesJzu+mZXTTQrIDy+WTSMRh5b7u/B/xzeHMsvjmRCbzyynIZeELCjgrDqDaexaksOpUxCb7NsGHZxjVS83CgGso3GciMTUh7hbmRZBcEL5IzVsUN7kW5Zo520ckki9A6OKNELyv4JvPYT9XOAkTw6kNRjSiG8WlkdFtdUurBXOOuyvNTsOCMpviOBcLxwGMIH1Tn1/+G0w/Zy21mPxYsnTDibGgy1LgiLGf6PyRRwIN2YbkQLKEg4My3W0vo2E4huNsmnYiiCjEKE46nBzqfoh/E/HrKG3WecCtVVAcLjhVOCD4QwST7P2IMIGZ21gOdwE3ojp0QglNhmArGaTSjdGXH3HbyEsw6jf0aKbSYQs9mEsp2DWgnPFka5AiI2E6iE2YSyplf1EfZKVlAlzGZQsWQ2uEynVxPh1dQqWzjMZgKVM5tA1pojjOUJD8oHMGUzgUqajS+eMJYl9E5Kt0BYMtJjKMMosqxFWVMtSbjTS1poIIfUZ5c3Gyi90a6S8KbL87kr+gnx3cqbDZTZLVdTSxEueWqoQrCZQDxmA2UsKyIcTht8JSLYTCAes4FqTEs0RnbCY5urUsHJp/ync1V6UO1t9kSVmbBdLs1GRLSZQHxmo8Bug3m8wUo4Y5p6ICmTzaAqM4zC1Z3JJbzh/bBzbSYQr9nA972RSdjjL0in2Nt7nGYDEfMMjIPwlB+QmM2gKjuMQmQwIbIQCgAW2UwgbrNRGKPIQCgCmJPNoDrhNhu2KNIJBUyGYjOBBMyGyW6ohDORAlBsJpCA2QBEaqdBI2yLAFJtJiwDv9kARNpQg1KGKxFA+tMDiZgNvSEUE9IW+4rFYDOBRMwGLkkKEC64xruRHNYRgJDZKPaCn3Al4gFKgzGtAupxjssCdVa8hEI2CnSMKDtJdoX+WaQxUAy1gPCKezgRykjUzdakRRf5u+CTugWzjPmEYi6TEmEIxTdLQ1bBILuAcCnkMilVTKg0RuUJRRshrqoJFSd3HTWPcChkoxlVTqhYeV1THqHk51dPiKwwMxHORN0t/fzKCRUjp8sgE0quo7UQmg1y9kYmHMn0UagaCBWb7KdEwp1UH4Wqg1BxiJvhiIRTiX19oFoIyf0+ifCAY42XoloIFYu0m4FA6OXu7+VXPYSmTjAbAuGp0FCGrHoIlQZh7i1LOBQdUpBUE6HiZIOYJbyV3VNA1UVo39IJh5KzmUB1ESpGJj3NEFYSwvoIG5kgpgk96Z29r9oIsy0xTSg2J5Sr+ggz819pQlt+XwhVH6GpFxPO5KczvuojVKzUKCpFuK4mhHUSmusiwuNqfKZWQsXBd6LghPK7CtOGhysNJzvHUBmhjU+B44SSjdS2nOnqZtM+Pt5lh26VESoW1mFghBuZPmNajdW4YG2mQkLMa5SKHmoa01nxqld1hHijRwmH8kJo0E8sVUeIJ6coobTOUE/3STUTdtDHo4RCS7HoA9YsS6MVEmKLzwihJ2no62THaDUTKl3EAhBCSU6Kb3E5m40WytH0aPrpdIw7T5WEFuICCOFKSnePrsd6B0dOxzZ96bbVPUTt57SiFBgK7fQRwqJz5MwykAj2Oqmzs/iByWU1AzUodOY0IRTbEBEKWalsNwiLH6azSLa/rKurp84VgXAmYTXGnCaVMGfXtJ5UY9D/Bmmr1ZE9LEX6i4RQxmpM8tEt81tZN67Im+/m6GC8240PVkesp6XZhKzSJIRMt3QUK5mQPSmqEInbIvn41W1DIiMy0o8Jh2zN0C5wQNOO3mxV7JNd4qK7t2IpgsX2OST7sWLCMYt5685qmL8w1YkWRqi7HHJ2242pB8PN6ZDtdG7SI8aEDJNspnN4VdSpdMIunZ7B6+ssnl9VaYtCsBu4OmQ4+pFMucWES9onYxprfzNlLmE8o86wEydv0f2K8uEEHV17TT0ln6SmMSFtVbSjh4XKJYzmR1juvUDn/Dw0T6fsNY268plN6duSfisi9IqXK2wr3s+cRxjnEUzZXzS+2o3srtM9SaynuAIkyUqPYjnx3HdEeFxECA0mLkIeYZQLekxmF2yQHh4G3aBurCPvOSv8qJF0bLgqtJx4xi0iLLBS0zlBt/7lEUZpRJtt8crYwCF3XEY9ThYKDQFbqr86KbCc2Ewjwps8K40MhkpohB/aKVuHZa69T+hnYTJ81pnNCAWWE5tp9L55M6WxwdAJw4rMehzNTF2Y1QmL5H3v5L9DZrvFTM+xnNjZI0LyeNTuZHcy5xE64d95h31xEI8PDq3cGpXdUHJDvr8innCL3pZUbr27Iky4kAn1bpTrcs+FIInO8IY09CITAsvpEsITvzIizL6h6SyJuZVtEOQcxq/lJjSwefEbi/Qcw84WCPjvkmA5nRRhum4Bg8m5UKxNEvJaSYTqkPignDMqu6zlRHP7IWF6f0KH/+4iWYQltVFS1TByvpAQ72cbFvtRCYmEgpeX3eBZjnGGEaILh7pzy3+r346xOyTIXCxXNzMBTO8WtZwohQgJd3EM9RyDYcIb0e5NLEbU7UbHsUclL75ABCwnZowqfYow32DoGi7lzLXYzoI/kInlGG2MMEwmrSP+y9HG8uaSdMZj2kRtjoJ+wcIJ/WRQ575tSoUX88ji84tXdE0BvSiwqkapN0JoFp9yK9ZG8o7Ghkhh1IVJJFTsT3y3aamiZ01J6uSf86EW5hNsLynCoB2C5JLz4rcKJujZ7/bANRwFfUbKaSIvtQ2uG8M2FWzZTF1hx6rTqL8ieylQw2a9NARRJVupWJbK05rZ8bgr1R/+mWTepjUt2+VKWbbKKL19i672FJlStnIJo5nfEpKxbEUQw4UMqFIzxdafGOEeHz2VvGtSzupxRlaZ9CMz219MiE2Q0sV/U1Ch7BKZTXb61NrjhNl61shp6VY31vdNLYTH35NHWsQyzQgTO0aK8A/CEwyi5SDzNFE1krURJ6VoORKZrSYebWpPSZ3VHynC/zUJLyJaDkIYTQLzjwkLFX2A7ULCnKWo5h/PGOEzkZBoOQhhVI3kn+bzFa1yIladIcxdTmz+Dyfc/kUmhKO1lOUghHqUHss/zqcga/HIDoM0YS93yNb8a4sR3uUSgrqIZznofGl0gHpXxVmpeKEa2WGAExatsTX/usMJ/84nhHtFEctBCeN17VP5iWm82D9G3hslbBfeJt78Gyf03MKnoZaDEiYLnSPZiMmdegukoSWE1LVuF58vVeeT4gcmloPN6ienNk/5rjbNe1wCiK0KR4T0/QqTuYoTvj0WVFNfdrfnZQgVK84d26a07NRMFkxVD9vnExB6vS6tf2o+vqUIH+5phNFKG06oJ7MNXs+yJGw7Mm0DnQ/DV719QuoiPlDz/iFF+OMfOmFgOam1J2y2YbPUHaPTafCq0zGc6QrNpFIWBgiLDSYm/OdHivB9zkDor3gfpX5l4VuCz9qzA37NUt8UlLkO76hoZRslnL+nCPc0q4mUbeAW/5wRTbfZZIkxBZ7M9ynCbf+aKYgkNabVfKnY8JB7G3Hzur9NEXr9S25CRTcEppJzNSv6Ziwa4WU/vZ9GfXvlJxRab8zRmOf2/oTwNeosEsKHAWNDJMuU9wVNQN6s1Pe7ZDUZRJ1FQvg+vxd5S7h7pLvutcUph+3eosv29VH5uo6tNCHcz89FqmkIaTnmdH2Y1SJ7Ld5qQXrd+sgwBNpfqOZ5bKUJ4V2/Jfq+gUxTz8omnCG1Ca/TBa4VRtXq32UI1XmLv7+gqs5TsrCvaM3VLOHHQKC/oKlmwvPBC4Hw81yr7JE1Eyra/DOBcOtWWE1rJQSV1N0SCNU3TdxN81Qv4fngTSURvgwkuSlB9dbSFtIMUcK922IYBvOpTsLmfcvdEwm9viaUmxapVsJXrU8+QwpS0xZ1toZTNRI2H1tJUpoi/DKvzGvqJDzX5l9yCO9crSU0wMhXjYSTlubeIc/B7lQA1bSivKY+wuYlXklxwi8giJU8ts4YghDu0edghB4grCaItRGCEGou9hz89pYfc62a5LS+GGra/AV7Dk64rSqIdRH6Idxiz0ndE/VzUE1LrC2GLW3wE39OivBLRUGsidAP4Rf8Oen72gZaJX1iTYSgLxwMUs9JE74Dr6kgsamHEKQzWjLJlkMIOgytguy0FkKQkWqaS7s30e8w5A8x6iF8BSH8kX5OhvAOBlG62dRBCG0GT0nJhH4QpZtNHYTAZgghJBCCgbCmXUgOYg2EzQtQ7j7LPcLqEwyi5PmM6gmb9zCET1kc0n3egFB2Pa2eENZRbcB2n7f62ZVeTysn9Ouo+5lAQyJUvw5k+2nVhL6PorOkFMJnaDatR4klqJoQ9vWa+8xMqL7Apig8UrSTjTJW9v7SQyv5s/AOXFjc1LiwmDAwG8GmeHTTS5TdM36A/PUmvUmnnPxGqM3LfEcJHEUJN0WL/azmTuh2Or8RZkZNFEL1YQARhRajGL/fEUpo5dfvCTV8go2BEKanoqMMpu/ohBL6nk5/REFKSCmE6t5H1CYiiIzHeoSOTTUnfjnxGUQmQvXD99NXgYezfoml2HGNV99lPnLfvaCtvA2EDZXplKTY15D6gOS+nkq47WuiiEXf2pcUQcBmmhd+I+xvC96+4NGfA7cRmbZhMBsRm2meB4CkfJSFMExthBCpZlN88xUTIGHYy0oIJ4gFEalmI5CehoDpKeBShN5AGJFiNgI2E7bBgSbyfcCh2wC74S4HxWwErvYNAPO7ejbCYCDlI/KGsdBsTnltphkB9olDphKE6pcQ8ZU7u+nmmw3LFYtkwMlrCJiTb5cgVN8DRE3jzVELzIY3m2k+hmXqp+fweQjVpyBD5R9p5JoNr800r4MAai5hbo2DUP0RIXKOF3OHUZzZTDAeZARkIkwQOS21Qz52zmczscdobmFPX4pQfQrbYouzMRIzG75BU9wEtT5LBFkJE7vhq6mEqTbOU/xxDWUxmTKEUacBaypPt0EwGx6baU4uYkBqN1GSUN33BxEjx5oGwWw45maCGRk/VSPPjQoRqs/zGPG8fBgzZlPeZpAADgYFA0JuQvXu61xLwliWMWU2pW2mmQRQm3+l5KKchKr64caIr2VNNWU2ZW2m+fgaA7r5kzKihMBSBzHjeclcHDObkjbTVM5jPtZego8QaYxaq3VZihEzm1LZTFO5b8WAgzmzx3ARqnff4poK+v9SzRExmzI2AxqglgTQ/VaiCXIRgprqDhDG6xJxjIdRJQZNON/AZezmhQjVbeKp0HLumRljs2GemwH1MzEY4KFv7J2ECCFMUwcIY+tywlhZQ7NhtZnm5BKJHwhgOYsRIVS3P5PWCBnPH5kYw2v0mC5eaDYn5y2ET3N/cgSQmxCedEOqalhZGe6dgGbD8M3m4K3uLzC+OXEXQpWEqveCVtUokDRIkNlQsxnwJtd4+EAFfeG+2pibEFTVby7GCAJ5SYPUDynZDPj/63MNw9MG/W98FVSUEIw3vqYZQSSvJ0WUjVF+HQX/N4HRS/G5P3PXBisnBIxvKUZIeXH5qORS5kQQvv7x8iJFB/k0IT5hQkIcg1BeXF5PWLzHZ2sqk2tIl8YDfF8F+SQQAsafWUafUgOYfjQBQga2GWryeH95oRHogH/2vwnzSSEE+fiHOydA+piA8/zy/vr6cTJJNgOCnx+v7y8vz19bLSIczLDdFwF/SSSFECTk79kGiYNiJJlfZMLnDt7Lptg5kkQI9PziFkCW0cCd/yg5RCqQPEKQBOw/5sKQAO9DQutLJJNQhZAgkuQ2yUI3d+cve/4vZiBKMiHU9v1hXp4S0j28y6ucsSoghHp+/3D7AJOFcwDg+m4ldFAVEULd7Z8evrqg0gJQEin47XwO/v714WkvyTdJqpDQl7fdf356+fYGUXDN3769PH3ebyU3u4yqJozl3d1tn5/3UM/P27u7qsFi1Ub4r+k34a+v34S/vv77hP8Hp+iDD993eQEAAAAASUVORK5CYII=;" vertex="1" parent="1">
          <mxGeometry x="510" y="95" width="21" height="21" as="geometry" />
        </mxCell>
        <mxCell id="KjTmBkhDE84WE-KOnru3-59" value="" style="shape=image;verticalLabelPosition=bottom;labelBackgroundColor=default;verticalAlign=top;aspect=fixed;imageAspect=0;image=https://www.bluematador.com/hs-fs/hubfs/blog/new/BM-Cloudwatch-post-icon.png?noresize&amp;width=200&amp;name=BM-Cloudwatch-post-icon.png;" vertex="1" parent="1">
          <mxGeometry x="126.95" y="285" width="55" height="55" as="geometry" />
        </mxCell>
        <mxCell id="KjTmBkhDE84WE-KOnru3-60" value="AWS CloudWatch" style="text;html=1;align=center;verticalAlign=middle;resizable=0;points=[];autosize=1;strokeColor=none;fillColor=none;fontSize=10;" vertex="1" parent="1">
          <mxGeometry x="104.44999999999997" y="335.75999999999993" width="100" height="30" as="geometry" />
        </mxCell>
        <mxCell id="KjTmBkhDE84WE-KOnru3-61" value="" style="shape=image;verticalLabelPosition=bottom;labelBackgroundColor=default;verticalAlign=top;aspect=fixed;imageAspect=0;image=https://www.bluematador.com/hs-fs/hubfs/blog/new/BM-Cloudwatch-post-icon.png?noresize&amp;width=200&amp;name=BM-Cloudwatch-post-icon.png;" vertex="1" parent="1">
          <mxGeometry x="126.96" y="713.26" width="55" height="55" as="geometry" />
        </mxCell>
      </root>
    </mxGraphModel>
  </diagram>
</mxfile>
